<?xml version="1.0" standalone="no"?>
<!DOCTYPE svg PUBLIC "-//W3C//DTD SVG 1.1//EN" "http://www.w3.org/Graphics/SVG/1.1/DTD/svg11.dtd">
<svg xmlns="http://www.w3.org/2000/svg">
<metadata>Copyright (C) 2023 by original authors @ fontello.com</metadata>
<defs>
<font id="fontello" horiz-adv-x="1000" >
<font-face font-family="fontello" font-weight="400" font-stretch="normal" units-per-em="1000" ascent="850" descent="-150" />
<missing-glyph horiz-adv-x="1000" />
<glyph glyph-name="uni-approval" unicode="&#xe800;" d="M814 695h-130c-7 0-13-6-13-13s6-12 13-12h118v-702h-605v702h118c7 0 12 5 12 12s-5 13-12 13h-131c-7 0-12-6-12-13v-726c0-7 5-13 12-13h630c7 0 13 6 13 13v726c0 7-6 13-13 13z m-356-417c2-2 5-3 8-3 3 0 6 1 8 3l137 118c6 5 6 13 2 18-5 5-13 6-18 1l-129-111-62 55c-5 5-13 4-18-1-4-5-4-13 1-17l71-63z m-62 392h207c7 0 12 5 12 12s-5 13-12 13h-91v48c0 7-6 13-13 13s-12-6-12-13v-48h-91c-7 0-13-6-13-13s6-12 13-12z" horiz-adv-x="1000" />

<glyph glyph-name="uni-arrow-down" unicode="&#xe801;" d="M500 156c-3 0-7 1-9 4l-282 303c-5 5-4 13 1 18 5 5 13 4 17-1l273-293 273 293c4 5 12 6 17 1 5-5 6-13 1-18l-282-303c-2-3-5-4-9-4h0z" horiz-adv-x="1000" />

<glyph glyph-name="uni-arrow-left" unicode="&#xe802;" d="M306 350c0 4 1 7 4 9l303 282c5 5 13 4 18-1 5-5 4-13-1-17l-293-273 293-273c6-4 6-12 1-17-5-5-13-6-18-1l-303 282c-3 2-4 6-4 9v0z" horiz-adv-x="1000" />

<glyph glyph-name="uni-arrow-right" unicode="&#xe803;" d="M694 350c0 4-1 7-4 9l-303 282c-5 5-13 4-18-1-5-5-4-13 1-17l294-273-294-273c-5-4-6-12-1-17 5-5 13-6 18-1l303 282c3 2 4 6 4 9v0z" horiz-adv-x="1000" />

<glyph glyph-name="uni-arrow-up" unicode="&#xe804;" d="M500 484c4 0 7-1 9-4l282-303c5-5 4-13-1-18-5-5-13-4-17 1l-273 294-273-294c-4-5-12-6-17-1-5 5-6 13-1 18l282 303c2 3 6 4 9 4h0z" horiz-adv-x="1000" />

<glyph glyph-name="uni-calc-receipt" unicode="&#xe805;" d="M300 479h326c7 0 13 6 13 13s-6 12-13 12h-326c-7 0-13-5-13-12s6-13 13-13z m339-92c0 7-6 12-13 12h-326c-7 0-13-5-13-12s6-13 13-13h326c7 0 13 6 13 13z m-394-406c-7 0-12-5-12-12v-10c0-7 5-13 12-13s13 6 13 13v10c0 7-6 12-13 12z m103 0c-7 0-13-5-13-12v-10c0-7 6-13 13-13s12 6 12 13v10c0 7-5 12-12 12z m103 0c-7 0-13-5-13-12v-10c0-7 6-13 13-13s12 6 12 13v10c0 7-5 12-12 12z m333 277c0 0 1 1 1 1v488c0 6-6 12-13 12h-630c-7 0-12-6-12-12v-788c0-7 5-13 12-13s13 6 13 13v775h605v-472c-95 11-216-8-216-59v-200c0-8 4-15 10-22 0 0 0 0 0 0-7 0-13-5-13-12v-10c0-7 6-13 13-13s12 6 12 13v10c0 1-1 2-1 3 29-21 85-31 142-31 80 0 162 21 162 62v200c0 28-36 46-85 55z m60-155c0-12-48-37-137-37s-138 25-138 37v66c30-18 84-28 138-28s107 10 137 28v-66z m-137 138c89 0 137-25 137-38s-48-37-137-37-138 25-138 37 49 38 138 38z m0-275c-89 0-138 25-138 37v66c30-18 84-28 138-28s107 10 137 28v-66c0-12-48-37-137-37z" horiz-adv-x="1000" />

<glyph glyph-name="uni-calendar" unicode="&#xe806;" d="M851 647h-189v82c0 7-5 12-12 12s-13-5-13-12v-82h-277v82c0 7-5 12-12 12s-13-5-13-12v-82h-188c-7 0-13-6-13-13v-664c0-7 6-13 13-13h704c7 0 12 6 12 13v664c0 7-5 13-12 13z m-13-25v-93h-679v93h679z m-679-640v522h679v-522h-679z m267 287c8 3 16 7 22 11 6 5 10 10 14 15 3 6 6 11 7 17 2 6 2 11 2 16v4c0 10-2 19-5 27-4 8-9 15-16 21s-15 10-24 13c-10 4-21 5-33 5-10 0-19-1-27-3-8-3-15-6-21-10-7-3-12-8-17-13-4-4-8-10-11-15l20-13c7 12 16 20 26 24 10 4 20 7 30 7 17 0 29-4 38-12 10-8 14-18 14-31v-3c0-6-1-12-3-18-2-6-5-11-9-16-4-5-9-9-15-12s-14-5-22-5h-31v-22h30c6 0 13 0 20-2s14-4 20-8 11-9 15-15c4-7 6-15 6-25v-5c0-6-1-12-3-18-3-7-6-12-11-17-5-5-12-9-20-13-8-3-18-4-29-4-13 0-24 2-36 6-11 4-23 11-36 20l-13-21c12-10 26-17 40-22 14-4 29-7 45-7 16 0 30 2 41 7 11 4 21 10 28 17s12 16 15 25c3 9 5 18 5 28v5c0 15-5 29-15 40-9 11-23 19-41 22z m175 129c-31 0-53-10-68-30s-21-49-21-86v-41c0-37 7-66 21-86 14-20 37-30 68-30 32 0 55 10 69 30s22 49 22 86v41c0 38-7 66-22 86-14 20-37 30-69 30z m64-157c0-33-5-57-16-71-11-15-27-22-48-22-20 0-36 7-46 22-11 14-17 38-17 71v42c0 32 6 56 17 70 10 15 26 22 46 22 22 0 38-7 48-22 11-14 16-37 16-70v-42z" horiz-adv-x="1000" />

<glyph glyph-name="uni-caution" unicode="&#xe807;" d="M500 767c-230 0-417-187-417-417s187-417 417-417c230 0 417 187 417 417s-187 417-417 417z m0-809c-216 0-392 176-392 392s176 392 392 392c216 0 392-176 392-392s-176-392-392-392z m0 642c-7 0-13-6-13-13v-300c0-7 6-12 13-12s12 5 12 12v300c0 7-5 13-12 13z m0-400c-7 0-13-6-13-13v-75c0-7 6-12 13-12s12 5 12 12v75c0 7-5 13-12 13z" horiz-adv-x="1000" />

<glyph glyph-name="uni-check" unicode="&#xe808;" d="M805 526c-5 5-13 6-18 1l-382-329-193 171c-5 4-13 4-17-1-5-6-5-14 1-18l200-178c3-2 6-3 9-3 2 0 5 1 8 3l390 337c6 4 6 12 2 17z" horiz-adv-x="1000" />

<glyph glyph-name="uni-check-receipt" unicode="&#xe809;" d="M815 756h-630c-7 0-13-5-13-12v-788c0-7 6-12 13-12s12 5 12 12v775h605v-775c0-7 6-12 13-12s12 5 12 12v788c0 7-6 12-12 12z m-528-777c-6 0-12-6-12-13v-10c0-7 6-12 12-12s13 5 13 12v10c0 7-6 13-13 13z m103 0c-7 0-12-6-12-13v-10c0-7 5-12 12-12s13 5 13 12v10c0 7-6 13-13 13z m103 0c-7 0-12-6-12-13v-10c0-7 5-12 12-12s13 5 13 12v10c0 7-6 13-13 13z m103 0c-7 0-12-6-12-13v-10c0-7 5-12 12-12s13 5 13 12v10c0 7-6 13-13 13z m103 0c-7 0-13-6-13-13v-10c0-7 6-12 13-12s12 5 12 12v10c0 7-5 13-12 13z m-104 461l-129-111-62 55c-5 5-13 4-18-1-4-5-4-13 1-17l71-63c2-2 5-3 8-3 3 0 6 1 8 3l138 118c5 5 5 13 1 18-5 5-13 6-18 1z" horiz-adv-x="1000" />

<glyph glyph-name="uni-circle" unicode="&#xe80a;" d="M500 42c-170 0-308 138-308 308 0 169 138 307 308 307 169 0 307-138 307-307 0-170-138-308-307-308z m0 590c-156 0-283-126-283-282 0-156 127-283 283-283 155 0 282 127 282 283 0 156-127 282-282 282z" horiz-adv-x="1000" />

<glyph glyph-name="uni-close" unicode="&#xe80b;" d="M517 350l274 274c5 4 5 12 0 17s-13 5-17 0l-274-274-274 274c-5 5-13 5-18 0s-5-13 0-17l274-274-274-274c-5-5-5-13 0-18 2-3 5-4 9-4s6 1 9 4l274 274 274-274c2-3 5-4 8-4s7 1 9 4c5 5 5 13 0 18l-274 274z" horiz-adv-x="1000" />

<glyph glyph-name="uni-company-f" unicode="&#xe80c;" d="M149 708v-718h224v193h253v-193h223v718h-700z m229-415h-122v125h122v-125z m0 175h-122v125h122v-125z m182-175h-121v125h121v-125z m0 175h-121v125h121v-125z m182-175h-121v125h121v-125z m0 175h-121v125h121v-125z" horiz-adv-x="1000" />

<glyph glyph-name="uni-diamond" unicode="&#xe80d;" d="M811 362l-299 299c-5 5-12 5-17 0l-307-306c-2-3-3-6-3-9s1-7 3-9l299-299c2-2 6-3 9-3s6 1 9 3l306 307c2 2 4 5 4 8s-2 7-4 9z m-315-297l-281 281 288 289 282-282-289-288z" horiz-adv-x="1000" />

<glyph glyph-name="uni-diamond-f" unicode="&#xe80e;" d="M811 362l-298 299c-5 5-13 5-18 0l-306-306c-5-5-5-13 0-18l298-299c3-2 6-3 9-3s7 1 9 3l306 307c3 2 4 5 4 8s-1 7-4 9z" horiz-adv-x="1000" />

<glyph glyph-name="uni-doc" unicode="&#xe80f;" d="M826 545c0 3-1 5-3 8l-200 200c-2 2-5 3-8 3 0 0 0 0-1 0h-430c-7 0-12-5-12-12v-788c0-7 5-12 12-12h630c7 0 13 5 13 12v588c0 0-1 0-1 1z m-42 11h-157v158l157-158z m-587-587v762h405v-187c0-7 5-13 12-13h188v-562h-605z m471 396h-326c-7 0-13-6-13-12s6-13 13-13h326c7 0 13 6 13 13s-6 12-13 12z m0-105h-326c-7 0-13-6-13-12s6-13 13-13h326c7 0 13 6 13 13s-6 12-13 12z" horiz-adv-x="1000" />

<glyph glyph-name="uni-file" unicode="&#xe810;" d="M768 454c-6 3-14 1-17-5l-212-367c-3-6-89-151-215-78-36 21-60 49-69 84-18 69 24 144 24 144l213 368c0 1 43 92 106 111 22 7 43 4 65-8 18-11 30-26 35-46 17-64-37-154-38-155l-189-328c-6-13-27-50-53-59-11-4-22-2-34 4-8 5-14 12-16 22-7 27 13 68 22 82l188 326c3 6 1 14-5 17-6 4-13 2-17-4l-188-326c-1-2-35-58-24-101 4-16 13-29 28-37 18-11 36-13 54-7 42 14 67 71 67 72l189 326c2 4 59 100 40 175-7 26-22 47-46 61-28 16-57 19-86 10-73-23-119-120-120-123l-212-367c-2-3-48-84-27-163 11-42 38-75 81-100 27-16 54-24 82-24 12 0 25 2 37 5 80 22 128 103 130 107l212 367c3 6 1 13-5 17z" horiz-adv-x="1000" />

<glyph glyph-name="uni-fin" unicode="&#xe811;" d="M827 545c-1 3-2 5-4 8l-200 200c-2 2-5 3-8 3 0 0 0 0-1 0h-430c-6 0-12-5-12-12v-788c0-7 6-12 12-12h630c7 0 13 5 13 12v588c0 0 0 0 0 1z m-43 11h-157v158l157-158z m-587-587v762h405v-187c0-7 6-13 12-13h188v-562h-605z m398 421l-129-111-62 55c-5 5-13 5-18-1-4-5-4-13 1-17l71-63c2-2 5-3 8-3 3 0 6 1 8 3l137 118c6 5 6 13 2 18-5 5-13 6-18 1z" horiz-adv-x="1000" />

<glyph glyph-name="uni-help" unicode="&#xe812;" d="M590 523c-10 9-22 16-37 20-14 5-30 8-48 8-23 0-43-5-61-13-18-8-33-18-45-29-4-3-6-7-6-12 0-4 2-9 5-13 4-4 8-6 12-7 5 0 9 1 13 5 11 9 22 17 35 23 13 6 29 9 47 9 24 0 43-5 56-17 14-12 20-27 20-47v-4c0-7 0-13-2-19-2-6-5-12-9-18-4-6-9-12-16-19s-15-15-25-24c-12-10-21-20-28-28-7-8-12-15-16-23s-6-14-7-22-2-16-2-25c0-6 2-10 6-12 4-3 9-4 14-4 5 0 9 1 13 4s6 6 6 11c0 7 0 13 1 19 1 6 3 12 6 18 4 6 9 12 16 20 6 7 15 16 26 26 19 17 34 32 43 47 10 14 14 31 14 49v6c0 15-2 28-7 41s-14 22-24 30z m-95-324c-8 0-15-3-21-9-6-6-9-13-9-22 0-8 3-15 9-21 6-6 13-9 21-9 9 0 16 3 22 9 6 6 9 13 9 21 0 9-3 16-9 22-6 6-13 9-22 9z m4 568c-230 0-417-187-417-417s187-417 417-417c230 0 417 187 417 417s-187 417-417 417z m0-809c-216 0-392 176-392 392s176 392 392 392c216 0 392-176 392-392s-176-392-392-392z" horiz-adv-x="1000" />

<glyph glyph-name="uni-help-f" unicode="&#xe813;" d="M500 754c-223 0-405-181-405-404 0-223 182-405 405-405s404 182 404 405c0 223-181 404-404 404z m18-607c-6-6-13-9-22-9-8 0-15 3-21 9-6 6-9 13-9 21 0 9 3 16 9 22 6 6 13 9 21 9 9 0 16-3 22-9s9-13 9-22c0-8-3-15-9-21z m104 299c0-18-4-35-14-49-9-15-24-30-43-47-11-10-20-19-26-26-7-8-12-14-15-21-4-6-6-11-7-17-1-6-1-12-1-19 0-5-2-9-6-11-4-3-8-4-13-4-5 0-10 1-14 4-4 2-6 6-6 12 0 9 1 17 2 25s3 15 7 22c4 8 9 15 16 23 7 8 16 18 28 28 10 9 18 16 25 24s12 13 16 19c4 6 7 12 9 18 2 6 2 12 2 19v4c0 20-6 35-20 47-13 11-32 17-56 17-18 0-34-3-47-9-13-6-24-14-35-24-4-3-8-4-13-4-4 1-8 3-12 7-3 4-5 8-5 13 0 5 2 9 6 12 12 11 27 21 45 29 18 8 38 13 61 13 18 0 34-3 48-8 15-4 27-11 37-20 10-8 18-19 24-31s8-25 8-40v-6z" horiz-adv-x="1000" />

<glyph glyph-name="uni-info" unicode="&#xe814;" d="M500 767c-230 0-417-187-417-417s187-417 417-417c230 0 417 187 417 417s-187 417-417 417z m0-809c-216 0-392 176-392 392s176 392 392 392c216 0 392-176 392-392s-176-392-392-392z m0 467c-7 0-13-6-13-13v-300c0-7 6-12 13-12s12 5 12 12v300c0 7-5 13-12 13z m0 175c-7 0-13-6-13-13v-75c0-7 6-12 13-12s12 5 12 12v75c0 7-5 13-12 13z" horiz-adv-x="1000" />

<glyph glyph-name="uni-main-lc" unicode="&#xe815;" d="M420 340c-43 0-80 27-87 66-1 5 3 10 8 11 5 1 11-2 12-8 5-28 33-49 67-49s61 21 66 49c1 6 7 9 12 8 6-1 9-6 8-11-7-39-44-66-86-66z m373 0v-198c0-5-4-10-10-10h-186-176-179c-12 0-23 6-30 17-6 10-7 23-1 34 24 51 67 91 118 112-38 29-61 74-61 122 0 45 21 88 56 117 36 29 82 40 128 30 51-10 94-49 110-99h106c1 0 1 0 1 0 1 0 1 0 2 0 1-1 3-1 4-3l115-115c2-1 2-3 3-4 0-1 0-1 0-1 0-1 0-1 0-2z m-115 10h81l-40 41-41 40v-81z m-81-198c5 0 10 3 13 7 2 5 3 11 0 16-25 51-71 91-126 108-4 2-6 5-7 9 0 4 2 8 5 10 51 27 77 84 66 141-10 50-50 91-100 102-10 2-19 3-28 3-30 0-60-10-83-30-31-25-49-62-49-101 0-48 26-92 68-115 4-2 6-6 6-10-1-4-4-7-7-9-55-17-101-57-126-108-3-5-3-11 0-16 3-4 8-7 13-7h179 176z m176 0v178h-105c-5 0-10 5-10 10v105h-90c10-58-12-115-58-150 51-21 93-61 118-112 5-10 5-21 0-31h145z" horiz-adv-x="1000" />

<glyph glyph-name="uni-cart-check" unicode="&#xe816;" d="M635 266c4 0 8 3 9 6l96 221c2 3 1 7-1 9-1 3-5 5-8 5h-104c-14 57-66 100-128 100-64 0-117-45-129-106h-78l-35 101c-1 4-5 7-9 7h-59c-5 0-10-5-10-10s5-10 10-10h52l108-314-1-64c-28-5-49-30-49-59 0-34 27-61 60-61 30 0 54 22 59 51h151c5-29 29-51 59-51 33 0 60 27 60 61 0 33-27 60-60 60-30 0-54-22-59-50h-151c-4 25-24 45-49 49l0 55h266z m-7-74c22 0 40-18 40-40 0-22-18-40-40-40s-40 18-40 40c0 22 18 40 40 40z m-129 395c62 0 112-50 112-111s-50-112-112-112c-61 0-111 50-111 112s50 111 111 111z m-100-435c0-23-18-41-40-41s-40 18-40 41c0 22 18 40 40 40s40-18 40-40z m-33 134l-67 195h69c0-2 0-3 0-5 0-73 59-132 131-132s132 59 132 132c0 4 0 7-1 11h86l-87-201h-263z m67 184c-4 4-4 10-1 14 4 5 10 5 14 1l35-31 74 64c4 3 10 3 14-1 3-4 3-11-1-14l-80-69c-2-2-5-3-7-3-2 0-5 1-7 3l-41 36z" horiz-adv-x="1000" />

<glyph glyph-name="uni-main-approval" unicode="&#xe817;" d="M837 582l-74 73c-2 2-4 3-7 3s-5-1-7-3l-84-83h-374c-28 0-50-23-50-50v-320c0-28 22-50 50-50h167l-15-60h-52c-6 0-10-5-10-10s4-10 10-10h220c5 0 10 4 10 10s-5 10-10 10h-53l-15 60h168c27 0 50 22 50 50v290l76 76c4 4 4 10 0 14z m-248-86c-1-2-2-4-2-6l-5-74-111-95-56 50c-4 3-11 3-14-1-4-4-3-11 1-14l62-56c2-2 5-2 7-2 2 0 5 0 6 2l120 103 73 2c3 0 5 2 7 3l21 21v-197c0-10-8-18-17-18h-360c-10 0-18 8-18 18v260c0 9 8 17 18 17h282l-14-13z m-51-404h-75l15 60h45l15-60z m203 110c0-17-14-30-30-30h-420c-17 0-30 13-30 30v320c0 16 13 30 30 30h354l-37-38h-287c-13 0-23-10-23-22v-260c0-13 10-23 23-23h360c12 0 22 10 22 23v202l38 38v-270z m3 301c0 0 0 0 0 0l-78-78-64-2 4 62 70 70c0 0 0 0 0 0l80 79 59-59-71-72z" horiz-adv-x="1000" />

<glyph glyph-name="uni-main-pds" unicode="&#xe818;" d="M421 422c-4 3-9 6-15 8-5 2-12 3-20 3h-48v-143h14v57h34c8 0 14 1 20 3 6 2 10 5 14 9 4 3 7 8 9 13 2 5 3 10 3 16v4c0 6-1 12-3 17-1 5-4 9-8 13z m-3-33c0-9-3-17-8-22-6-5-15-8-27-8h-31v62h33c12 0 20-3 25-8 6-5 8-12 8-21v-3z m81 44h-44v-143h44c18 0 33 5 43 16 10 10 15 26 15 45v21c0 20-5 35-15 46-10 10-25 15-43 15z m44-81c0-8-1-16-3-22-2-6-5-11-9-15-4-5-8-8-14-10-5-2-11-3-18-3h-31v119h31c7 0 13-1 18-3 6-2 10-5 14-9 4-4 7-10 9-16 2-6 3-14 3-22v-19z m120 2c-3 4-8 6-14 9-6 2-14 5-23 7-7 1-12 3-17 5-4 1-8 3-10 5-3 2-5 4-6 7-1 2-1 5-1 8v4c0 4 1 7 2 10 2 3 5 5 7 8s7 3 11 4c4 1 8 2 12 2 8 0 15-1 20-3 6-2 12-5 16-8l7 11c-5 4-11 7-18 9-7 2-15 4-25 4-6 0-13-1-18-3s-11-4-15-8c-4-3-8-7-10-11-2-4-3-9-3-15v-4c0-5 0-9 2-13 1-4 3-7 7-10 3-3 8-6 13-9 6-2 13-4 21-6 8-2 14-3 19-5 5-2 9-4 11-6 3-2 5-5 6-7 1-3 2-6 2-9v-5c0-3-1-6-3-9s-4-5-7-8c-3-2-7-4-11-5-4-2-9-2-15-2-6 0-13 1-20 3-7 3-14 6-21 11l-7-11c6-5 14-9 22-12 8-3 17-4 27-4 7 0 14 1 20 3 7 2 12 5 16 8 4 3 7 7 10 12 2 4 3 9 3 14v5c0 5-1 10-2 14-2 4-4 7-8 10z m47 218h-420c-28 0-50-23-50-50v-320c0-28 22-50 50-50h167l-15-60h-52c-5 0-10-5-10-10s5-10 10-10h220c6 0 10 4 10 10s-4 10-10 10h-52l-15 60h167c28 0 50 22 50 50v320c0 27-22 50-50 50z m-173-480h-74l15 60h44l15-60z m203 110c0-17-13-30-30-30h-420c-16 0-30 13-30 30v320c0 16 14 30 30 30h420c17 0 30-14 30-30v-320z" horiz-adv-x="1000" />

<glyph glyph-name="uni-main-pes" unicode="&#xe819;" d="M710 415h-57c-19 23-42 42-68 54 31 26 48 63 48 103 0 73-59 133-133 133s-133-60-133-133c0-40 17-77 48-103-26-12-49-31-67-54h-58c-28 0-50-22-50-50v-320c0-28 22-50 50-50h420c28 0 50 22 50 50v80 160 80c0 28-22 50-50 50z m-271 43c3 1 6 5 6 8s-1 8-5 10c-33 21-53 57-53 96 0 62 50 113 113 113 62 0 113-51 113-113 0-39-20-75-53-96-4-2-5-6-5-10 0-3 3-7 6-8 25-9 47-24 65-43h-252c18 19 40 34 65 43z m271-443h-420c-16 0-30 14-30 30v320c0 17 14 30 30 30h62 296 62c17 0 30-13 30-30v-70h-230c-50 0-90-40-90-90s40-90 90-90h230v-70c0-16-13-30-30-30z m30 120h-230c-39 0-70 31-70 70s31 70 70 70h230v-140z m-230 100c17 0 30-13 30-30s-13-30-30-30-30 13-30 30 13 30 30 30z m66 328c1 6-2 11-8 12-5 1-10-3-11-8-5-24-29-42-57-42-28 0-52 18-56 42-1 5-7 9-12 8-6-1-9-6-8-12 6-34 38-58 76-58 38 0 70 24 76 58z" horiz-adv-x="1000" />

<glyph glyph-name="uni-manage" unicode="&#xe81a;" d="M485 40h-378v334h675v-29c0-7 5-12 12-12s13 5 13 12v400c0 7-6 12-13 12h-700c-7 0-12-5-12-12v-718c0-7 5-12 12-12h391c7 0 12 5 12 12s-5 13-12 13z m297 692v-333h-675v333h675z m-551-183h140c7 0 13 6 13 12s-6 13-13 13h-140c-7 0-12-6-12-13s5-12 12-12z m0-330c-7 0-12-5-12-12s5-13 12-13h140c7 0 13 6 13 13s-6 12-13 12h-140z m526-41c-37 0-67-30-67-67 0-37 30-67 67-67s67 30 67 67c0 37-30 67-67 67z m0-109c-24 0-42 19-42 42s18 42 42 42 42-19 42-42-19-42-42-42z m133 22c1 6 1 13 1 20s0 13-1 20l24 28c4 4 5 9 2 14l-26 45c-3 4-8 7-13 6l-37-8c-10 9-22 15-34 20l-12 35c-2 5-6 9-12 9h-51c-5 0-10-4-12-9l-12-35c-12-5-24-11-34-20l-37 8c-5 1-10-2-13-6l-26-45c-2-5-2-10 2-14l24-28c-1-7-1-14-1-20s0-14 1-20l-24-28c-4-4-4-10-2-14l26-45c3-5 8-7 13-6l37 7c10-8 22-15 34-20l12-35c2-5 7-8 12-8h51c6 0 10 3 12 8l12 35c12 5 24 12 34 20l37-7c5-1 10 1 13 6l26 45c3 4 2 10-2 14l-24 28z m-24 20c0-7 0-15-2-22 0-3 1-7 3-10l23-26-17-29-33 7c-4 1-8 0-11-3-11-9-23-16-37-21-4-1-7-4-8-8l-11-32h-33l-11 32c-1 4-4 7-8 8-13 5-26 12-37 21-3 3-7 4-10 3l-34-7-16 29 22 26c3 3 4 7 3 10-1 7-2 15-2 22 0 7 1 14 2 21 1 4 0 8-3 11l-22 25 16 29 34-7c4 0 7 1 10 3 11 10 24 17 37 22 4 1 7 4 8 8l11 32h33l11-32c1-4 4-7 8-8 14-5 26-12 37-22 3-2 7-3 11-3l33 7 17-29-23-25c-2-3-4-7-3-11 2-7 2-14 2-21z" horiz-adv-x="1000" />

<glyph glyph-name="uni-manage-alarm" unicode="&#xe81b;" d="M804 140c-1 1-36 21-38 111 0 0 0 0 0 0l-6 245c0 2-8 233-261 233-253 0-261-231-261-233l-5-245c-2-90-38-110-38-110-5-3-8-9-6-14 1-6 6-10 12-10h597c5 0 10 4 12 9 1 6-1 12-6 14z m-574 2c13 19 26 52 28 108l5 246c0 8 7 208 236 208 229 0 236-200 236-209l6-245c1-56 14-89 27-108h-538z m362-70c-7 2-14-3-15-9-1-3-14-67-79-67-64 0-77 64-77 67-2 6-8 11-15 9-7-1-11-7-10-14 6-30 35-87 102-87 68 0 98 57 104 87 1 7-4 13-10 14z m-168 536c-1 0-90-35-78-161 1-7 6-12 13-12 0 0 0 0 1 0 7 1 12 7 11 14-10 107 59 135 62 136 6 2 9 9 7 16-3 6-10 9-16 7z" horiz-adv-x="1000" />

<glyph glyph-name="uni-manage-client" unicode="&#xe81c;" d="M852 647h-241v82c0 7-6 12-13 12h-197c-7 0-12-5-12-12v-82h-241c-7 0-13-6-13-13v-318c0-7 6-13 13-13h222c7 0 13 6 13 13s-6 12-13 12h-210v294h679v-294h-223c-7 0-12-5-12-12s5-13 12-13h236c7 0 12 6 12 13v318c0 7-5 13-12 13z m-438 69h172v-69h-172v69z m438-496c-7 0-13-6-13-13v-225h-679v225c0 7-6 13-12 13s-13-6-13-13v-237c0-7 6-13 13-13h704c7 0 12 6 12 13v237c0 7-5 13-12 13z m-340-38v180c0 7-6 12-12 12s-13-5-13-12v-180c0-7 6-13 13-13s12 6 12 13z" horiz-adv-x="1000" />

<glyph glyph-name="uni-manage-doc" unicode="&#xe81d;" d="M696 167c-37 0-67-31-67-68 0-37 30-67 67-67 37 0 67 30 67 67 0 37-30 68-67 68z m0-110c-23 0-42 19-42 42s19 43 42 43 42-19 42-43-19-42-42-42z m133 22c1 7 2 14 2 20s-1 14-2 20l25 28c3 4 4 10 1 15l-25 44c-3 5-8 7-14 6l-36-7c-11 8-22 15-35 20l-11 35c-2 5-7 9-12 9h-52c-5 0-10-4-12-9l-11-35c-13-5-24-12-35-20l-36 7c-5 1-11-1-14-6l-25-44c-3-5-2-11 1-15l25-27c-1-7-2-14-2-21s1-13 2-20l-25-27c-3-4-4-10-1-15l25-44c3-5 8-7 14-6l36 7c11-8 22-15 35-20l11-35c2-5 7-9 12-9h52c5 0 10 4 12 9l11 35c13 5 24 12 35 20l36-7c5-1 11 1 14 6l25 44c3 5 2 11-1 15l-25 27z m-23 20c0-6-1-14-2-21-1-4 0-8 3-11l22-25-17-29-33 7c-4 1-8 0-11-3-11-10-23-17-37-21-3-2-6-5-8-8l-10-33h-34l-10 33c-2 3-5 6-8 8-14 4-26 11-37 21-3 3-7 3-11 3l-33-7-17 29 22 25c3 3 4 7 3 11-1 7-2 14-2 21s1 15 2 22c1 4 0 8-3 11l-22 25 17 29 33-7c4-1 8 0 11 3 11 9 23 17 37 21 3 2 6 4 8 8l10 33h34l10-33c2-4 5-6 8-8 14-4 26-12 37-21 3-3 7-4 11-3l33 7 17-29-22-25c-3-3-4-7-3-11 1-7 2-15 2-22z m-337-117h-303v762h605v-381c0-7 6-13 13-13s12 6 12 13v394c0 7-5 12-12 12h-630c-7 0-13-5-13-12v-788c0-7 6-12 13-12h315c7 0 12 5 12 12s-5 13-12 13z m169 633h-327c-7 0-12-6-12-13s5-12 12-12h327c7 0 13 5 13 12s-6 13-13 13z m0-105h-327c-7 0-12-6-12-13s5-12 12-12h327c7 0 13 5 13 12s-6 13-13 13z m-157-105h-170c-7 0-12-6-12-13s5-12 12-12h170c6 0 12 5 12 12s-6 13-12 13z" horiz-adv-x="1000" />

<glyph glyph-name="uni-manage-hand" unicode="&#xe81e;" d="M536 730v-53-257c0-7 6-13 13-13s12 6 12 13v257c0 22 18 40 41 40s39-18 39-40v-105-152c0-7 6-13 13-13s12 6 12 13v152c0 22 18 40 40 40s40-18 40-40v-280c0-6 6-12 13-12s12 6 12 12v280c0 36-29 65-65 65-15 0-28-6-40-15v55c0 36-29 65-64 65-16 0-29-6-41-15v3c0 36-29 65-65 65s-65-29-65-65v-3c-11 9-24 15-39 15-36 0-66-29-66-65v-342l-31 108c-5 17-16 30-31 39-15 8-33 10-50 5-34-10-54-46-44-80l98-390c2-5 7-9 13-9 1 0 2 0 3 0 6 2 10 9 9 15l-99 391c-6 21 6 43 27 49 11 3 21 2 31-3 9-5 16-14 19-24l56-192c2-7 9-10 15-9 7 2 11 9 9 16l-1 3c0 1 1 2 1 3v420c0 22 18 40 41 40 22 0 39-18 39-40v-259c0-6 6-12 13-12s12 6 12 12v259 53c0 22 18 40 40 40 23 0 40-18 40-40z m135-590c-37 0-67-30-67-67 0-37 30-67 67-67 37 0 67 30 67 67 0 37-30 67-67 67z m0-109c-23 0-42 19-42 42s19 42 42 42 42-19 42-42-19-42-42-42z m133 22c1 6 2 13 2 20 0 6-1 13-2 20l25 27c3 4 4 10 1 15l-25 45c-3 4-8 6-14 6l-36-8c-11 8-22 15-35 20l-11 35c-2 5-7 9-12 9h-52c-5 0-10-4-11-9l-12-35c-13-5-24-12-35-20l-36 8c-5 1-11-2-13-6l-26-45c-3-5-2-11 1-15l25-27c-1-7-2-14-2-20s1-14 2-20l-25-28c-3-4-4-10-1-15l26-44c2-5 8-7 13-6l36 7c11-8 22-15 35-20l12-35c1-5 6-8 11-8h52c5 0 10 3 12 8l11 35c13 5 24 12 35 20l36-7c6-1 11 1 14 6l25 44c3 5 3 11-1 15l-25 28z m-25 41c1-7 2-14 2-21 0-7-1-15-2-22-1-4 0-8 3-10l22-26-16-29-34 7c-4 1-8 0-11-3-11-9-23-17-37-21-3-1-6-4-7-8l-11-32h-34l-10 32c-2 4-4 7-8 8-14 4-26 12-37 21-3 3-7 4-11 3l-33-7-17 29 23 26c2 2 3 6 3 10-2 7-3 15-3 22 0 7 1 14 3 21 0 4-1 8-3 11l-23 25 17 29 33-7c4 0 8 1 11 3 11 10 23 17 37 22 4 1 6 4 8 7l10 33h34l11-33c1-3 4-6 7-7 14-5 26-12 37-22 3-2 7-3 11-3l34 7 16-29-22-25c-3-3-4-7-3-11z" horiz-adv-x="1000" />

<glyph glyph-name="uni-manage-monitor" unicode="&#xe81f;" d="M755 178c-37 0-67-31-67-68s30-67 67-67c37 0 67 31 67 67s-30 68-67 68z m0-110c-23 0-42 19-42 42s19 43 42 43 42-19 42-43-19-42-42-42z m133 22c1 7 2 14 2 20s-1 14-2 21l25 27c3 4 4 10 1 15l-26 44c-2 5-8 7-13 6l-36-7c-11 8-22 15-35 20l-12 35c-1 5-6 9-11 9h-52c-5 0-10-4-12-9l-11-35c-13-5-24-12-35-20l-36 7c-5 1-11-1-14-6l-25-44c-3-5-2-11 1-15l25-27c-1-7-2-14-2-21s1-13 2-20l-25-27c-3-4-4-10-1-15l25-44c3-5 9-7 14-6l36 7c11-8 22-15 35-20l11-35c2-5 7-9 12-9h52c5 0 10 4 11 9l12 35c13 5 24 12 35 20l36-7c5-1 11 1 13 6l26 44c3 5 2 11-1 15l-25 27z m-23 20c0-7-1-14-2-21-1-4 0-8 2-11l23-25-17-29-33 7c-4 0-8 0-11-3-11-10-23-17-37-21-3-2-6-5-8-8l-10-33h-34l-11 33c-1 3-4 6-7 8-14 4-26 11-37 21-3 3-7 3-11 3l-33-7-17 29 22 25c3 3 4 7 3 11-1 7-2 14-2 21s1 15 2 22c1 4 0 8-3 11l-22 25 17 29 33-7c4-1 8 0 11 3 11 9 23 17 37 21 3 2 6 4 7 8l11 33h34l10-33c2-4 5-6 8-8 14-4 26-12 37-21 3-3 7-4 11-3l33 7 17-29-23-25c-2-3-3-7-2-11 1-7 2-14 2-22z m-345 64c7 0 12 6 12 13s-5 12-12 12h-412v533h714v-382c0-7 5-13 12-13s13 6 13 13v394c0 7-6 13-13 13h-739c-7 0-12-6-12-13v-557c0-7 5-13 12-13h357v-147h-141c-7 0-12-6-12-13s5-12 12-12h207c7 0 13 5 13 12s-6 13-13 13h-41v147h43z m23 470h-327c-7 0-13-6-13-13s6-12 13-12h327c6 0 12 5 12 12s-6 13-12 13z m0-106h-327c-7 0-13-5-13-12s6-13 13-13h327c6 0 12 6 12 13s-6 12-12 12z m-158-130c7 0 13 6 13 13s-6 12-13 12h-169c-7 0-13-5-13-12s6-13 13-13h169z" horiz-adv-x="1000" />

<glyph glyph-name="uni-manage-order" unicode="&#xe820;" d="M744 170c-37 0-67-30-67-67s30-67 67-67 67 30 67 67-30 67-67 67z m0-109c-23 0-42 19-42 42s19 42 42 42 42-19 42-42-19-42-42-42z m133 22c1 7 2 13 2 20s-1 13-2 20l25 28c3 4 4 10 1 14l-26 45c-2 5-8 7-13 6l-36-8c-11 9-22 16-35 20l-12 36c-1 5-6 8-11 8h-52c-5 0-10-3-12-8l-11-36c-13-4-24-11-35-20l-36 8c-6 1-11-1-14-6l-25-45c-3-4-2-10 1-14l25-28c-1-7-2-13-2-20s1-13 2-20l-25-28c-3-4-4-10-1-14l25-45c3-4 8-7 14-6l36 8c11-9 22-15 35-20l11-36c2-5 7-8 12-8h52c5 0 10 3 11 8l12 36c13 5 24 11 35 20l36-8c5-1 11 2 13 6l26 45c3 4 2 10-1 14l-25 28z m-23 20c0-7-1-14-2-21-1-4 0-8 3-11l22-25-17-29-33 6c-4 1-8 0-11-2-11-10-23-17-37-22-3-1-6-4-8-8l-10-32h-34l-11 32c-1 4-4 7-7 8-14 5-26 12-37 22-3 2-7 3-11 2l-33-6-17 29 22 25c3 3 4 7 3 11-1 7-2 14-2 21s1 14 2 22c1 3 0 7-3 10l-22 26 17 29 33-7c4-1 8 0 11 3 11 9 23 16 37 21 3 1 6 4 7 8l11 32h34l10-32c2-4 5-7 8-8 14-5 26-12 37-21 3-3 7-4 11-3l33 7 17-29-22-26c-3-3-4-7-3-10 1-8 2-15 2-22z m-337-45l-50-24v394l320 148v-247c0-7 5-12 12-12s13 5 13 12v266c0 2-1 3-1 4 0 1 0 1 0 2 0 0-1 0-1 0-1 2-3 4-5 6l-331 156c-3 2-7 2-10 0l-362-158c-3-1-5-3-6-6 0 0 0 0-1 0 0-1 1-1 0-2 0-1-1-2-1-4v-411c0-5 3-9 7-11l347-169c2-1 3-1 5-1 1 0 1 0 1 0 0 0 0 0 0 0 1 0 1 0 2 0 1 1 2 1 3 1l69 33c6 3 9 10 6 17-3 6-10 9-17 6z m-63 392l-316 143 159 70 306-145-149-68z m15 288l301-143-138-63-304 144 141 62z m-350-164l323-146v-395l-323 157v384z" horiz-adv-x="1000" />

<glyph glyph-name="uni-manage-pds" unicode="&#xe821;" d="M755 178c-37 0-67-31-67-68s30-67 67-67c37 0 67 31 67 67s-30 68-67 68z m0-110c-23 0-42 19-42 42s19 43 42 43 42-19 42-43-19-42-42-42z m133 22c1 7 2 14 2 20s-1 14-2 21l25 27c3 4 4 10 1 15l-26 44c-2 5-8 7-13 6l-36-7c-11 8-22 15-35 20l-12 35c-1 5-6 9-11 9h-52c-5 0-10-4-12-9l-11-35c-13-5-24-12-35-20l-36 7c-5 1-11-1-14-6l-25-44c-3-5-2-11 1-15l25-27c-1-7-2-14-2-21s1-13 2-20l-25-27c-3-4-4-10-1-15l25-44c3-5 9-7 14-6l36 7c11-8 22-15 35-20l11-35c2-5 7-9 12-9h52c5 0 10 4 11 9l12 35c13 5 24 12 35 20l36-7c5-1 11 1 13 6l26 44c3 5 2 11-1 15l-25 27z m-23 20c0-7-1-14-2-21-1-4 0-8 2-11l23-25-17-29-33 7c-4 0-8 0-11-3-11-10-23-17-37-21-3-2-6-5-8-8l-10-33h-34l-11 33c-1 3-4 6-7 8-14 4-26 11-37 21-3 3-7 3-11 3l-33-7-17 29 22 25c3 3 4 7 3 11-1 7-2 14-2 21s1 15 2 22c1 4 0 8-3 11l-22 25 17 29 33-7c4-1 8 0 11 3 11 9 23 17 37 21 3 2 6 4 7 8l11 33h34l10-33c2-4 5-6 8-8 14-4 26-12 37-21 3-3 7-4 11-3l33 7 17-29-23-25c-2-3-3-7-2-11 1-7 2-14 2-22z m-345 64c7 0 12 6 12 13s-5 12-12 12h-412v533h714v-382c0-7 5-13 12-13s13 6 13 13v394c0 7-6 13-13 13h-739c-7 0-12-6-12-13v-557c0-7 5-13 12-13h357v-147h-141c-7 0-12-6-12-13s5-12 12-12h207c7 0 13 5 13 12s-6 13-13 13h-41v147h43z m-210 464c-10 3-21 5-33 5h-82v-240h24v95h58c12 0 23 2 32 5 10 4 18 9 24 15s12 14 15 22c4 9 5 18 5 27v7c0 10-1 19-4 28-4 8-9 15-15 22-6 6-14 10-24 14z m20-70c0-15-5-27-14-36-10-9-25-13-45-13h-52v103h56c18 0 32-4 41-13 9-9 14-21 14-35v-6z m135 75h-74v-240h74c31 0 55 9 72 27 17 17 25 43 25 76v34c0 33-8 59-25 77-17 17-41 26-72 26z m74-135c0-15-2-27-5-38s-9-19-15-26-15-12-24-15c-9-4-19-5-29-5h-52v198h52c10 0 20-1 29-5 9-3 17-8 24-15s11-16 15-26 5-23 5-37v-31z m189-61c-2-5-6-9-11-13s-12-7-19-10c-8-2-16-3-25-3-11 0-22 2-34 6s-23 10-35 19l-12-20c11-8 23-15 37-19s29-7 45-7c12 0 24 1 34 5 11 3 19 7 26 13s13 13 16 20 6 16 6 24v8c0 9-1 16-4 23-2 7-6 13-12 18-6 5-14 10-25 14s-23 8-38 12c-11 2-20 5-27 8s-14 6-18 9c-4 3-7 7-9 11-2 4-3 9-3 14v7c0 6 1 12 4 16 3 5 7 9 12 13 5 3 11 6 18 8 7 1 14 2 21 2 12 0 23-1 33-4s19-8 27-14l11 19c-8 6-18 11-30 15s-25 6-41 6c-11 0-22-2-32-5-9-3-18-7-25-12s-12-12-16-19c-4-8-6-16-6-25v-8c0-7 2-14 4-21 2-6 6-12 12-17 6-5 13-10 22-14s22-8 36-11c12-3 23-6 31-9 8-3 14-6 19-10 5-3 8-7 10-12 1-4 2-9 2-15v-7c0-5-1-10-4-15z" horiz-adv-x="1000" />

<glyph glyph-name="uni-manage-user" unicode="&#xe822;" d="M756 178c-37 0-67-30-67-67 0-37 30-67 67-67 37 0 67 30 67 67 0 37-30 67-67 67z m0-109c-24 0-42 19-42 42s18 42 42 42 42-19 42-42-19-42-42-42z m133 22c1 6 1 13 1 20 0 7 0 13-1 20l24 28c4 4 5 9 2 14l-26 45c-3 4-8 7-13 6l-37-8c-10 9-22 15-34 20l-12 35c-2 5-6 9-12 9h-51c-5 0-10-4-12-9l-12-35c-12-5-24-11-34-20l-37 8c-5 1-10-2-13-6l-26-45c-2-5-2-10 2-14l24-28c-1-7-1-13-1-20 0-7 0-14 1-20l-24-28c-4-4-4-10-2-14l26-45c3-5 8-7 13-6l37 7c10-8 22-15 34-20l12-35c2-5 6-8 12-8h51c6 0 10 3 12 8l12 35c12 5 24 12 34 20l37-7c5-1 10 1 13 6l26 45c3 4 2 10-2 14l-24 28z m-24 20c0-7 0-15-2-22-1-3 1-7 3-10l23-26-17-29-33 7c-4 1-8 0-11-3-11-9-24-16-37-21-4-1-7-4-8-8l-11-32h-33l-11 32c-1 4-4 7-8 8-13 5-26 12-37 21-3 3-6 4-10 3l-34-7-16 29 22 26c3 3 4 7 3 10-1 7-2 15-2 22 0 7 1 14 2 21 1 4 0 8-3 11l-22 25 16 29 34-7c4 0 7 1 10 3 11 10 24 17 37 22 4 1 7 4 8 8l11 32h33l11-32c1-4 4-7 8-8 13-5 26-12 37-22 3-2 6-3 11-3l33 7 17-29-23-25c-3-3-4-7-3-11 2-7 2-14 2-21z m-339-71h-418c16 152 129 279 280 309 6 1 10 6 10 11s-2 11-7 13c-72 28-119 96-119 173 0 103 84 186 186 186 103 0 187-83 187-186 0-77-47-145-119-173-5-2-8-7-8-13s5-10 10-11c43-9 84-25 120-49 6-4 14-2 18 4 4 6 2 13-4 17-30 19-62 34-95 44 63 38 103 106 103 181 0 116-95 211-212 211s-211-95-211-211c0-75 39-143 103-181-150-45-258-179-268-337 0-3 1-7 3-9 3-3 6-4 9-4h432c7 0 12 5 12 12s-5 13-12 13z" horiz-adv-x="1000" />

<glyph glyph-name="uni-minus" unicode="&#xe823;" d="M900 337h-800c-7 0-13 6-13 13s6 12 13 12h800c7 0 12-6 12-12s-5-13-12-13z" horiz-adv-x="1000" />

<glyph glyph-name="uni-monitor" unicode="&#xe824;" d="M869 727h-739c-7 0-12-5-12-12v-558c0-7 5-12 12-12h357v-148h-141c-7 0-12-6-12-12s5-13 12-13h307c7 0 13 6 13 13s-6 12-13 12h-141v148h357c7 0 13 5 13 12v558c0 7-6 12-13 12z m-12-557h-714v532h714v-532z m-606 419h326c7 0 13 6 13 12s-6 13-13 13h-326c-7 0-13-6-13-13s6-12 13-12z m0-105h326c7 0 13 6 13 12s-6 13-13 13h-326c-7 0-13-6-13-13s6-12 13-12z m0-105h169c7 0 12 6 12 12s-5 13-12 13h-169c-7 0-13-6-13-13s6-12 13-12z" horiz-adv-x="1000" />

<glyph glyph-name="uni-move" unicode="&#xe825;" d="M333 30h-173v639h173c7 0 13 6 13 13s-6 12-13 12h-186c-6 0-12-5-12-12v-665c0-7 6-12 12-12h186c7 0 13 5 13 12s-6 13-13 13z m519 664h-430c-6 0-12-5-12-12v-327h-135c-7 0-13-6-13-13s6-12 13-12h135v-313c0-7 6-12 12-12h430c6 0 12 5 12 12v665c0 7-6 12-12 12z m-13-664h-404v300h205l-85-85c-5-5-5-13 0-18 2-2 6-3 9-3s6 1 9 3l106 106c5 5 5 13 0 18l-106 106c-5 5-13 5-18 0s-5-13 0-18l85-84h-205v314h404v-639z" horiz-adv-x="1000" />

<glyph glyph-name="uni-org-chart" unicode="&#xe826;" d="M329 104h-91l-31 25c-3 2-5 3-8 3h-70c-7 0-13-6-13-13v-143c0-7 6-12 13-12h200c7 0 13 5 13 12v116c0 7-6 12-13 12z m-12-115h-176v118h54l31-25c3-2 5-3 8-3h83v-90z m283 115h-91l-32 25c-2 2-5 3-7 3h-71c-7 0-12-6-12-13v-143c0-7 5-12 12-12h201c7 0 13 5 13 12v116c0 7-6 12-13 12z m-12-115h-176v118h53l32-25c2-2 5-3 8-3h83v-90z m283 115h-91l-32 25c-2 2-5 3-8 3h-70c-7 0-13-6-13-13v-143c0-7 6-12 13-12h201c7 0 12 5 12 12v116c0 7-5 12-12 12z m-13-115h-176v118h54l32-25c2-2 5-3 7-3h83v-90z m-580 406h443c7 0 13 5 13 12v255c0 7-6 13-13 13h-206l-74 58c-2 2-5 2-8 2h-155c-7 0-12-5-12-12v-316c0-7 5-12 12-12z m13 315h138l74-58c2-2 5-2 8-2h198v-230h-418v290z m-87-493c7 0 13 6 13 12v37h271v-37c0-6 6-12 12-12s13 6 13 12v37h270v-37c0-6 5-12 12-12s13 6 13 12v49c0 7-6 13-13 13h-282v34c0 7-6 12-13 12s-12-5-12-12v-34h-284c-7 0-12-6-12-13v-49c0-6 5-12 12-12z" horiz-adv-x="1000" />

<glyph glyph-name="uni-pin" unicode="&#xe827;" d="M500 642c-91 0-165-74-165-165 0-91 74-165 165-165 91 0 165 74 165 165 0 91-74 165-165 165z m0-305c-77 0-140 63-140 140s63 140 140 140 140-63 140-140-63-140-140-140z m0 466c-180 0-327-147-327-327 0-69 21-141 56-193l260-381c3-4 7-6 11-6s8 2 10 6l261 382c35 52 56 123 56 192 0 180-147 327-327 327z m252-503c-1-1-2-2-2-3l-250-366-251 367c-31 47-51 115-51 178 0 166 135 302 302 302 166 0 302-136 302-302 0-63-20-131-50-176z" horiz-adv-x="1000" />

<glyph glyph-name="uni-pin-f" unicode="&#xe828;" d="M814 476c0 174-141 314-314 314s-315-141-315-314c0-65 20-135 53-185l0 0 1 0c0-1 0-1 0-1l261-381 260 381c0 0 0 0 1 1l0 0 0 0c33 50 53 120 53 185z m-314-151c-85 0-153 68-153 152s68 153 153 153c84 0 152-69 152-153s-68-152-152-152z" horiz-adv-x="1000" />

<glyph glyph-name="uni-plus" unicode="&#xe829;" d="M900 362h-388v388c0 6-5 12-12 12s-13-6-13-12v-388h-387c-7 0-13-6-13-12s6-13 13-13h387v-388c0-6 6-12 13-12s12 6 12 12v388h388c7 0 12 6 12 13s-5 12-12 12z" horiz-adv-x="1000" />

<glyph glyph-name="uni-popup" unicode="&#xe82a;" d="M851 694h-704c-7 0-12-5-12-12v-519c0-7 5-12 12-12s13 5 13 12v388h679v-521h-540c-7 0-13-6-13-13s6-12 13-12h552c7 0 13 5 13 12v665c0 7-6 12-13 12z m-691-118v93h679v-93h-679z m325-359c0-7 5-12 12-12s13 5 13 12v150c0 7-6 13-13 13h-150c-7 0-12-6-12-13s5-12 12-12h120l-329-329c-5-5-5-13 0-18 3-2 6-3 9-3s7 1 9 3l329 329v-120z" horiz-adv-x="1000" />

<glyph glyph-name="uni-progress" unicode="&#xe82b;" d="M911 224c0 3-1 6-3 8l-102 103c-3 2-5 3-8 3-1 0-1 0-1 0h-221c-7 0-12-5-12-12v-371c0-7 5-13 12-13h323c7 0 13 6 13 13v268c0 0-1 1-1 1z m-42 12h-60v59l60-59z m-280-269v346h195v-90c0-7 6-12 13-12h90v-244h-298z m-154 407v268c0 1 0 1 0 1-1 3-2 6-4 8l-102 103c-2 2-5 3-8 3-1 0-1 0-1 0h-221c-7 0-12-5-12-12v-371c0-7 5-12 12-12h323c7 0 13 5 13 12z m-43 281h-60v60l60-60z m-280-268v345h195v-90c0-7 6-12 13-12h90v-243h-298z m323-382h-298v246c0 7-6 12-13 12s-12-5-12-12v-259c0-7 5-12 12-12h311c7 0 13 5 13 12s-6 13-13 13z m391 412c0-6 5-12 12-12s13 6 13 12v259c0 7-6 13-13 13h-312c-7 0-12-6-12-13s5-12 12-12h300v-247z" horiz-adv-x="1000" />

<glyph glyph-name="uni-purchase" unicode="&#xe82c;" d="M827 312c-28 28-67 10-85-4 0-1-62-53-122-106-6-6-12-10-17-15 0 16-4 30-12 41-17 22-44 23-45 23h-108c-66 0-128 0-184-20-77-28-97-88-98-90-2-7 1-14 8-16 1 0 2-1 4-1 5 0 10 4 11 9 1 2 19 51 83 74 53 19 110 19 176 19h107c0 0 16-1 26-13 7-10 9-25 5-45 0 0 0 0 0 0-18-12-26-13-27-13h-120c-7 0-12-5-12-12s5-13 12-13l118 0c7-1 31 1 90 53 60 54 121 106 121 106 1 1 33 25 52 5 19-19-1-48 0-48l-186-194c-1-1-26-31-88-31h-197c-7 0-13-6-13-13s6-12 13-12h197c74 0 106 39 107 40l186 194c11 16 26 54-2 82z m-357 36c0-1 1 0 1-1 1 0 1-1 2-1 2-1 4-1 5-1 3 0 7 1 9 3l86 84c5 4 5 12 0 17-5 5-13 5-18 0l-65-63-3 306c0 6-5 12-12 12 0 0 0 0 0 0-7 0-13-6-13-13l3-305-66 61c-5 5-13 4-18-1-5-5-4-13 1-17l88-81z" horiz-adv-x="1000" />

<glyph glyph-name="uni-receipt" unicode="&#xe82d;" d="M815 756h-630c-7 0-13-5-13-12v-788c0-7 6-12 13-12s12 5 12 12v775h605v-775c0-7 6-12 13-12s12 5 12 12v788c0 7-6 12-12 12z m-146-254h-327c-7 0-12-6-12-13s5-12 12-12h327c7 0 12 5 12 12s-5 13-12 13z m0-105h-327c-7 0-12-6-12-13s5-12 12-12h327c7 0 12 5 12 12s-5 13-12 13z m-382-418c-6 0-12-6-12-13v-10c0-7 6-12 12-12s13 5 13 12v10c0 7-6 13-13 13z m103 0c-7 0-12-6-12-13v-10c0-7 5-12 12-12s13 5 13 12v10c0 7-6 13-13 13z m103 0c-7 0-12-6-12-13v-10c0-7 5-12 12-12s13 5 13 12v10c0 7-6 13-13 13z m103 0c-7 0-12-6-12-13v-10c0-7 5-12 12-12s13 5 13 12v10c0 7-6 13-13 13z m103 0c-7 0-13-6-13-13v-10c0-7 6-12 13-12s12 5 12 12v10c0 7-5 13-12 13z" horiz-adv-x="1000" />

<glyph glyph-name="uni-ref" unicode="&#xe82e;" d="M762 115c3 0 7 1 9 4 2 2 4 5 4 9v565c0 6-4 11-10 12-159 37-271-76-293-100h-320c-7 0-12-6-12-13v-594c0-7 5-13 12-13h326c3 0 5 2 8 4 0 0 1 0 1 1 0 0 1 0 1 1 91 131 272 124 274 124z m-597 465h300v-570h-300v570z m585-440c-42 0-172-10-260-106v553c18 20 120 123 260 96v-543z m97 465h-37c-7 0-13-6-13-13s6-12 13-12h25v-570h-235c-7 0-13-5-13-12s6-13 13-13h247c7 0 13 6 13 13v594c0 7-6 13-13 13z m-471-252h-124c-7 0-13-6-13-13 0-7 6-12 13-12h124c7 0 12 5 12 12 0 7-5 13-12 13z m0-91h-124c-7 0-13-5-13-12s6-13 13-13h124c7 0 12 6 12 13s-5 12-12 12z" horiz-adv-x="1000" />

<glyph glyph-name="uni-report" unicode="&#xe82f;" d="M869 727h-739c-7 0-12-5-12-12v-558c0-7 5-12 12-12h357v-148h-141c-7 0-12-6-12-12s5-13 12-13h307c7 0 13 6 13 13s-6 12-13 12h-141v148h357c7 0 13 5 13 12v558c0 7-6 12-13 12z m-12-557h-714v532h714v-532z m-573 182l89 89 91-137c2-3 6-5 10-5 0 0 0 0 1 0 3 0 6 1 9 3l228 229v-70c0-7 6-12 13-12s12 5 12 12v100c0 3-1 6-3 9 0 0 0 0 0 0-3 2-6 4-9 4h-100c-7 0-13-6-13-13s6-12 13-12h70l-218-218-92 137c-2 3-5 5-9 6-4 0-7-1-10-4l-100-100c-5-5-5-13 0-18s13-5 18 0z" horiz-adv-x="1000" />

<glyph glyph-name="uni-retrieve" unicode="&#xe830;" d="M832 439c-7 0-13-6-13-13v-416h-639v416c0 7-6 13-13 13s-12-6-12-13v-429c0-7 5-12 12-12h665c7 0 12 5 12 12v429c0 7-5 13-12 13z m-349-291c3-3 6-4 9-4s7 1 9 4l106 106c5 5 5 13 0 17-5 5-13 5-18 0l-84-84v514c0 7-6 13-13 13s-12-6-12-13v-514l-85 84c-5 5-13 5-18 0s-5-12 0-17l106-106z" horiz-adv-x="1000" />

<glyph glyph-name="uni-sales" unicode="&#xe831;" d="M474 337c104 0 188 84 188 187s-84 187-188 187-187-84-187-187 84-187 187-187z m0 349c90 0 163-72 163-162 0-89-73-162-163-162-89 0-162 73-162 162 0 90 73 162 162 162z m354-381c-28 28-68 10-85-4 0 0-62-52-122-106-7-6-12-10-17-15 0 16-4 30-13 41-16 21-43 23-45 23h-107c-66 0-128 0-185-21-76-27-97-87-98-89-2-7 2-14 8-16 2-1 3-1 4-1 5 0 10 3 12 9 1 2 18 50 83 74 52 19 110 19 176 19h107c0 0 16-1 26-14 7-9 9-24 5-44 0 0 0 0 0-1-19-11-26-12-27-12h-120c-7 0-13-6-13-13s6-12 13-12l117 0c8-1 31 1 90 53 61 54 122 105 122 105 0 1 32 26 51 6 20-20 0-49 0-49l-185-193c-1-1-27-31-88-31h-198c-6 0-12-6-12-13s6-12 12-12h198c74 0 106 39 107 40l185 193c12 17 27 55-1 83z" horiz-adv-x="1000" />

<glyph glyph-name="uni-search" unicode="&#xe832;" d="M896-29l-224 224c55 59 89 138 89 225 0 182-148 331-331 331s-330-149-330-331c0-182 148-331 330-331 87 0 165 34 224 88l224-224c3-3 6-4 9-4s7 1 9 4c5 5 5 13 0 18z m-466 143c-168 0-305 137-305 306 0 169 137 306 305 306s306-137 306-306c0-169-137-306-306-306z" horiz-adv-x="1000" />

<glyph glyph-name="uni-set" unicode="&#xe833;" d="M500 499c-82 0-149-67-149-149 0-83 67-149 149-149 82 0 149 66 149 149 0 82-67 149-149 149z m0-273c-68 0-124 55-124 124s56 124 124 124 124-56 124-124-56-124-124-124z m314 68c3 18 5 37 5 56s-2 37-5 56l67 76c4 4 4 10 1 14l-64 112c-3 4-8 7-13 6l-100-21c-29 25-61 43-97 56l-32 97c-2 5-6 8-12 8h-128c-6 0-11-3-12-8l-32-97c-36-13-68-31-97-56l-100 21c-5 1-11-2-13-6l-65-112c-2-4-2-10 2-14l67-76c-3-19-5-38-5-56s2-38 5-56l-67-76c-4-4-4-10-2-15l65-111c2-5 8-7 13-6l100 20c29-24 61-43 97-56l32-96c1-5 6-9 12-9h128c6 0 10 4 12 9l32 96c36 13 68 32 97 56l100-20c5-1 10 1 13 6l65 111c2 5 2 11-2 15l-67 76z m-13-182l-97 20c-4 1-8 0-11-3-29-26-62-45-99-57-3-1-6-4-7-8l-32-94h-110l-32 94c-1 4-4 7-7 8-37 12-70 31-99 57-3 3-7 4-11 3l-97-20-55 96 65 74c3 3 4 7 3 10-4 19-6 39-6 58s2 38 6 57c1 4 0 8-3 11l-65 74 55 95 97-19c4-1 8 0 11 2 29 26 62 45 99 58 3 1 6 4 7 7l32 94h110l32-94c1-3 4-6 7-7 37-13 70-32 99-58 3-2 7-3 11-2l97 19 55-95-65-74c-3-3-4-7-3-11 4-19 6-38 6-57s-2-39-6-58c-1-4 0-7 3-10l65-74-55-96z" horiz-adv-x="1000" />

<glyph glyph-name="uni-set-approval" unicode="&#xe834;" d="M696 158c-37 0-67-30-67-67s30-67 67-67c37 0 67 30 67 67s-30 67-67 67z m0-109c-23 0-42 19-42 42s19 42 42 42 42-19 42-42-19-42-42-42z m133 22c1 6 2 13 2 20 0 6-1 13-2 20l25 27c3 4 4 10 1 15l-25 44c-3 5-9 7-14 7l-36-8c-11 8-22 15-35 20l-11 35c-2 5-7 9-12 9h-52c-5 0-10-4-12-9l-11-35c-13-5-24-12-35-20l-36 8c-5 0-11-2-13-7l-26-44c-3-5-2-11 1-15l25-27c-1-7-2-14-2-20 0-7 1-14 2-20l-25-28c-3-4-4-10-1-15l26-44c2-5 8-7 13-6l36 7c11-8 22-15 35-20l11-35c2-5 7-8 12-8h52c5 0 10 3 12 8l11 35c13 5 24 12 35 20l36-7c6-1 11 1 14 6l25 44c3 5 2 11-1 15l-25 28z m-23 20c0-7-1-15-2-22-1-4 0-8 3-10l22-26-17-29-33 7c-4 1-8 0-11-3-11-9-23-17-37-21-3-2-6-4-7-8l-11-32h-34l-10 32c-2 4-5 6-8 8-14 4-26 12-37 21-3 3-7 4-11 3l-33-7-17 29 23 26c2 2 3 6 2 10-1 7-2 15-2 22 0 7 1 14 2 21 1 4 0 8-2 11l-23 25 17 29 33-7c4 0 8 1 11 3 11 10 23 17 37 22 3 1 6 4 8 7l10 33h34l11-33c1-3 4-6 7-7 14-5 26-12 37-22 3-2 7-3 11-3l33 7 17-29-22-25c-3-3-4-7-3-11 1-7 2-14 2-21z m-157 601h122v-350c0-7 6-13 13-13s12 6 12 13v363c0 7-5 12-12 12h-135c-7 0-12-5-12-12s5-13 12-13z m-180-701h-303v701h118c7 0 13 6 13 13s-6 12-13 12h-130c-7 0-13-5-13-12v-727c0-7 6-12 13-12h315c7 0 12 5 12 12s-5 13-12 13z m-42 310c3-2 6-3 9-3 2 0 5 1 8 3l137 118c5 4 6 12 1 18-4 5-12 5-17 1l-129-111-63 55c-5 5-13 4-17-1-5-5-4-13 1-18l70-62z m-62 391h207c7 0 13 6 13 13s-6 12-13 12h-91v49c0 7-5 12-12 12s-13-5-13-12v-49h-91c-7 0-12-5-12-12s5-13 12-13z" horiz-adv-x="1000" />

<glyph glyph-name="uni-storage" unicode="&#xe835;" d="M439 736h-310c-7 0-13-6-13-12v-749c0-7 6-13 13-13h188c7 0 13 6 13 13s-6 12-13 12h-176v724h285v-714c0-7 6-13 13-13s12 6 12 13v727c0 6-5 12-12 12z m432 0h-310c-7 0-12-6-12-12v-749c0-7 5-13 12-13h194c7 0 13 6 13 13s-6 12-13 12h-181v724h285v-714c0-7 5-13 12-13s13 6 13 13v727c0 6-6 12-13 12z m-545-429h-86c-7 0-13-5-13-12s6-13 13-13h86c7 0 12 6 12 13s-5 12-12 12z m0 109h-86c-7 0-13-5-13-12s6-13 13-13h86c7 0 12 6 12 13s-5 12-12 12z m378-14v-105c0-7 5-13 12-13s13 6 13 13v105c0 7-6 12-13 12s-12-5-12-12z" horiz-adv-x="1000" />

<glyph glyph-name="uni-supply" unicode="&#xe836;" d="M589 44l-91-43v394l320 148v-246c0-7 6-13 13-13s12 6 12 13v266c0 1 0 2-1 3 0 1 0 1 0 2 0 0 0 0 0 0-2 3-3 5-6 6l-330 156c-4 2-7 2-11 1l-362-159c-2-1-4-3-5-6-1 0-1 0-1 0 0-1 0-1 0-2 0-1-1-2-1-3v-412c0-4 3-9 7-11l346-169c2-1 4-1 6-1 0 0 0 0 1 0 0 0 0 0 0 0 0 0 1 1 1 1 1 0 2 0 3 0l110 52c6 3 9 11 6 17-3 6-11 9-17 6z m-103 373l-317 143 160 70 305-144-148-69z m14 288l301-142-137-64-305 145 141 61z m-349-164l322-146v-395l-322 157v384z m722-417c1 1 1 2 1 3-1 2-1 5-3 7l-83 87c-4 5-12 5-17 0-5-4-5-12-1-17l63-66h-206c-7 0-12-6-12-13s5-12 12-12h206l-63-66c-4-5-4-13 1-17 2-3 5-4 8-4 4 0 7 1 9 4l83 87c0 0 0 1 0 1 1 1 2 2 2 3 1 1 0 2 0 3z" horiz-adv-x="1000" />

<glyph glyph-name="uni-thumb-user" unicode="&#xe837;" d="M500 767c-230 0-417-187-417-417 0-119 52-233 142-313 76-67 174-104 275-104s199 37 275 104c90 80 142 194 142 313 0 230-187 417-417 417z m-252-717c1 4 3 7 4 11 2 4 4 9 6 13 2 5 4 9 7 14 2 4 4 8 7 12 3 4 6 8 9 13 2 3 5 7 8 11 3 4 7 8 10 12 3 3 6 7 9 10 4 4 8 7 12 11 3 3 6 6 9 9 5 3 10 7 15 10 3 2 6 5 9 7 6 4 11 7 17 10 3 2 6 3 9 5 8 4 17 8 27 12 4 2 7 6 8 10 0 5-2 10-6 12-52 33-83 88-83 148 0 97 78 175 175 175 96 0 175-78 175-175 0-60-31-115-83-148-4-2-6-7-6-12 1-4 4-8 8-10 10-4 19-8 27-12 3-2 6-3 9-5 6-3 11-6 17-10 3-2 6-5 9-7 5-3 10-7 14-10 4-3 7-6 10-9 4-4 8-7 12-11 3-3 6-7 9-10 3-4 7-8 10-12 3-4 6-8 8-11 3-5 6-9 9-13 3-4 5-8 7-12 2-5 5-9 7-14 2-4 4-9 6-13 1-4 3-7 4-11-71-60-160-92-252-92-92 0-181 32-252 92z m524 18c-3 8-7 14-11 21-3 8-7 15-11 22-6 10-13 19-20 28-4 6-9 12-14 18-8 9-18 17-28 25-5 4-9 9-14 13-16 11-32 21-50 29 48 38 76 95 76 156 0 111-90 200-200 200s-200-89-200-200c0-61 28-118 76-156-18-8-34-18-50-29-5-4-9-8-14-12-10-9-20-17-28-26-5-6-9-12-14-18-7-9-14-18-20-28-5-7-8-14-11-22-4-7-8-13-11-21-77 74-120 176-120 282 0 216 176 392 392 392 216 0 392-176 392-392 0-106-43-208-120-282z" horiz-adv-x="1000" />

<glyph glyph-name="uni-thumb-user02" unicode="&#xe838;" d="M500 767c-230 0-417-187-417-417 0-119 52-233 142-313 76-67 174-104 275-104s199 37 275 104c90 80 142 194 142 313 0 230-187 417-417 417z m-252-717c1 4 3 7 4 11 2 4 4 9 6 13 2 5 4 9 7 14 2 4 4 8 7 12 3 4 6 8 9 13 2 3 5 7 8 11 3 4 7 8 10 12 3 3 6 7 9 10 4 4 8 7 12 11 3 3 6 6 9 9 5 3 10 7 15 10 3 2 6 5 9 7 6 4 11 7 17 10 3 2 6 3 9 5 8 4 17 8 27 12 4 2 7 6 8 10 0 5-2 10-6 12-52 33-83 88-83 148 0 97 78 175 175 175 96 0 175-78 175-175 0-60-31-115-83-148-4-2-6-7-6-12 1-4 4-8 8-10 10-4 19-8 27-12 3-2 6-3 9-5 6-3 11-6 17-10 3-2 6-5 9-7 5-3 10-7 14-10 4-3 7-6 10-9 4-4 8-7 12-11 3-3 6-7 9-10 3-4 7-8 10-12 3-4 6-8 8-11 3-5 6-9 9-13 3-4 5-8 7-12 2-5 5-9 7-14 2-4 4-9 6-13 1-4 3-7 4-11-71-60-160-92-252-92-92 0-181 32-252 92z" horiz-adv-x="1000" />

<glyph glyph-name="uni-thumb-user03" unicode="&#xe839;" d="M500 767c-230 0-417-187-417-417 0-119 52-233 142-313 76-67 174-104 275-104s199 37 275 104c90 80 142 194 142 313 0 230-187 417-417 417z m272-699c-3 8-7 14-11 21-3 8-7 15-11 22-6 10-13 19-20 28-4 6-9 12-14 18-8 9-18 17-28 25-5 4-9 9-14 13-16 11-32 21-50 29 48 38 76 95 76 156 0 111-90 200-200 200s-200-89-200-200c0-61 28-118 76-156-18-8-34-18-50-29-5-4-9-8-14-12-10-9-20-17-28-26-5-6-9-12-14-18-7-9-14-18-20-28-5-7-8-14-11-22-4-7-8-13-11-21-77 74-120 176-120 282 0 216 176 392 392 392 216 0 392-176 392-392 0-106-43-208-120-282z" horiz-adv-x="1000" />

<glyph glyph-name="uni-thumb-user04" unicode="&#xe83a;" d="M500 767c-230 0-417-187-417-417 0-119 52-233 142-313 76-67 174-104 275-104s199 37 275 104c90 80 142 194 142 313 0 230-187 417-417 417z m-272-699c-9 9-17 18-25 27l48 48 103 103c7-8 13-15 22-22-18-8-35-18-50-29-5-4-9-8-14-12-10-9-20-17-28-26-5-6-9-12-14-18-7-9-14-18-20-28-5-7-8-14-11-22-4-7-8-13-11-21z m-103 167c-6 22-11 45-14 68l436 436c23-3 46-8 68-15l-148-147c-84-14-150-80-164-164l-178-178z m176 158c0-4-1-8-1-13 0-21 4-40 10-60l-155-155c-10 18-18 37-25 57l171 171z m-106-288c-12 15-24 32-34 49l49 48 105 105c8-19 17-36 30-52l-150-150z m433 615c20-7 39-15 57-25l-85-85-40-40c-19 6-39 10-60 10-4 0-9-1-13-1l141 141z m264-370c0-18-2-35-4-52l-158-159c-5 6-9 12-14 18-8 9-17 16-27 24l201 201c1-10 2-21 2-32z m-263-129l245 245c7-22 12-44 15-68l-209-208c-2 1-4 3-6 5-14 10-29 19-45 26z m45 63c16 29 26 62 26 96 0 4-1 7-1 11l145 146c10-19 19-38 25-58l-195-195z m130 312c13-15 24-31 34-48l-141-141c-3 22-9 43-19 63l126 126z m-8 10l-124-125c-10 17-23 33-37 46l120 120c15-13 28-27 41-41z m-100 82c17-10 34-21 49-33l-120-120c-15 13-32 23-51 31l122 122z m72-611c-2 4-5 8-7 12-3 8-7 15-11 22-4 6-8 12-13 18l148 148c-10-49-28-95-55-137l-62-63z m-268 665c10 0 20-1 30-2l-420-421c-1 10-2 20-2 31 0 18 2 36 4 54l333 333c18 3 36 5 55 5z m-76-8l-309-309c10 51 30 98 57 139l113 113c42 28 89 47 139 57z m-176-684c1 4 3 7 4 11 2 4 4 9 6 13 2 5 4 9 7 14 2 4 4 8 7 12 3 4 6 8 9 13 2 3 5 7 8 11 3 4 7 8 10 12 3 3 6 7 9 10 4 4 8 7 12 11 3 3 6 6 9 9 5 3 10 7 15 10 3 2 6 5 9 7 6 4 11 7 17 10 3 2 6 3 9 5 8 4 17 8 27 12 4 2 7 6 8 10 0 5-2 10-6 12-52 33-83 88-83 148 0 97 78 175 175 175 96 0 175-78 175-175 0-60-31-115-83-148-4-2-6-7-6-12 1-4 4-8 8-10 10-4 19-8 27-12 3-2 6-3 9-5 6-3 11-6 17-10 3-2 6-5 9-7 5-3 10-7 14-10 4-3 7-6 10-9 4-4 8-7 12-11 3-3 6-7 9-10 3-4 7-8 10-12 3-4 6-8 8-11 3-5 6-9 9-13 3-4 5-8 7-12 2-5 5-9 7-14 2-4 4-9 6-13 1-4 3-7 4-11-71-60-160-92-252-92-92 0-181 32-252 92z" horiz-adv-x="1000" />

<glyph glyph-name="uni-upload" unicode="&#xe83b;" d="M832 160c7 0 13 5 13 12v529c0 7-6 13-13 13h-664c-7 0-13-6-13-13v-529c0-7 6-12 13-12h327v-150h-327c-7 0-13-6-13-13s6-12 13-12h664c7 0 13 5 13 12s-6 13-13 13h-312v150h312z m-652 25v504h640v-504h-300v277l84-85c5-4 13-4 18 0s5 13 0 18l-106 106c-2 2-5 4-9 4s-6-2-9-4l-106-106c-5-5-5-13 0-18 3-2 6-3 9-3s7 1 9 3l85 85v-277h-315z" horiz-adv-x="1000" />

<glyph glyph-name="uni-user" unicode="&#xe83c;" d="M608 328c63 38 103 106 103 181 0 117-95 212-212 212-116 0-211-95-211-212 0-75 39-143 103-181-150-44-258-179-268-337 0-3 1-7 3-9 3-3 6-4 9-4h728c4 0 7 1 10 4 2 2 3 6 3 9-10 158-119 293-268 337z m-459-325c16 153 129 279 280 309 6 1 10 6 10 11 1 6-2 11-7 13-72 28-119 96-119 173 0 103 84 187 186 187 103 0 187-84 187-187 0-77-47-145-119-173-5-2-8-7-8-13 1-5 5-10 10-11 152-30 265-156 281-309h-701z" horiz-adv-x="1000" />

<glyph glyph-name="uni-user02" unicode="&#xe83d;" d="M624 357c47 38 75 95 75 156 0 110-89 200-200 200-110 0-200-90-200-200 0-61 28-118 76-156-102-48-169-152-169-266 0-58 47-106 106-106h375c59 0 106 48 106 106 0 114-67 218-169 266z m63-347h-375c-45 0-81 37-81 81 0 112 70 212 174 252 5 1 8 5 8 10 1 5-2 9-6 12-52 32-83 88-83 148 0 97 79 175 175 175s175-78 175-175c0-60-31-116-82-148-4-3-7-7-6-12 0-5 3-9 8-10 104-40 174-140 174-252 0-44-36-81-81-81z" horiz-adv-x="1000" />

<glyph glyph-name="uni-user02-f" unicode="&#xe83e;" d="M624 357c47 38 75 95 75 156 0 110-89 200-200 200-110 0-200-90-200-200 0-61 28-118 76-156-102-48-169-152-169-266 0-58 47-106 106-106h375c59 0 106 48 106 106 0 114-67 218-169 266z" horiz-adv-x="1000" />

<glyph glyph-name="uni-user-f" unicode="&#xe83f;" d="M572 324c74 29 126 101 126 185 0 110-89 199-198 199s-199-89-199-199c0-84 52-156 126-185-159-32-281-167-291-334h728c-11 167-133 302-292 334z" horiz-adv-x="1000" />

<glyph glyph-name="uni-view-receipt" unicode="&#xe840;" d="M343 452h326c7 0 13 5 13 12s-6 13-13 13h-326c-7 0-13-6-13-13s6-12 13-12z m326-80h-326c-7 0-13-6-13-13s6-12 13-12h326c7 0 13 5 13 12s-6 13-13 13z m-200-100h-126c-7 0-13-6-13-13s6-12 13-12h126c7 0 13 5 13 12s-6 13-13 13z m431-278h-72v725c0 7-6 12-13 12h-630c-7 0-12-5-12-12v-725h-73c-7 0-13-6-13-13s6-12 13-12h800c6 0 12 5 12 12s-6 13-12 13z m-702 712h605v-712h-605v712z" horiz-adv-x="1000" />

<glyph glyph-name="uni-wallet" unicode="&#xe841;" d="M762 702h-525c-62 0-112-51-112-113v-480c0-62 50-112 112-112h525c62 0 113 50 113 112v124 232 124c0 62-51 113-113 113z m0-680h-525c-48 0-87 39-87 87v480c0 49 39 88 87 88h525c49 0 88-39 88-88v-111h-336c-71 0-128-58-128-129 0-71 57-128 128-128h336v-112c0-48-39-87-88-87z m88 224h-336c-57 0-103 46-103 103 0 57 46 104 103 104h336v-207z m-379 103c0-24 19-43 43-43 24 0 44 19 44 43 0 24-20 44-44 44-24 0-43-20-43-44z" horiz-adv-x="1000" />

<glyph glyph-name="uni-write" unicode="&#xe842;" d="M165 54c0 0 0 0 0 0l196 6c3 1 6 2 8 4l499 499c5 5 5 13 0 17l-184 184c-4 5-13 5-17 0l-499-498c-2-3-3-5-4-9l-12-190c0-3 1-7 4-9 2-3 5-4 9-4z m24 197l487 487 166-166-487-487-177-6 11 172z m689-294h-756c-7 0-13-6-13-13s6-12 13-12h756c7 0 12 5 12 12s-5 13-12 13z" horiz-adv-x="1000" />

<glyph glyph-name="uni-write-f" unicode="&#xe843;" d="M859 578l-184 183-498-498-13-190 196 6 499 499z m18-615h-756c-6 0-12-6-12-13s6-12 12-12h756c7 0 13 5 13 12s-6 13-13 13z" horiz-adv-x="1000" />

<glyph glyph-name="uni-confirm" unicode="&#xe844;" d="M500 657c-170 0-308-138-308-307 0-170 138-308 308-308 169 0 307 138 307 308 0 169-138 307-307 307z m0-590c-156 0-283 127-283 283 0 156 127 282 283 282 155 0 282-126 282-282 0-156-127-283-282-283z m140 365c4-5 4-13-2-17l-172-149c-3-2-6-3-8-3-3 0-6 1-9 3l-89 79c-5 4-5 12-1 17 5 5 13 6 18 1l81-71 164 142c5 4 13 4 18-2z" horiz-adv-x="1000" />

<glyph glyph-name="uni-confirm-f" unicode="&#xe845;" d="M500 657c-170 0-308-138-308-307 0-170 138-308 308-308 169 0 307 138 307 308 0 169-138 307-307 307z m138-242l-172-149c-3-2-6-3-8-3-3 0-6 1-9 3l-89 79c-5 4-5 12-1 17 5 5 13 6 18 1l81-71 164 142c5 4 13 4 18-2s4-13-2-17z" horiz-adv-x="1000" />

<glyph glyph-name="uni-write-modify" unicode="&#xe846;" d="M159 55c0 0 1 0 1 0l196 6c3 0 6 1 8 4l499 498c5 5 5 13 0 18l-184 184c-5 5-13 5-18 0l-498-499c-2-2-4-5-4-8l-12-190c0-4 1-7 3-10 3-2 6-3 9-3z m25 197l486 486 166-166-486-486-177-6 11 172z m351-307c0-7-6-13-13-13h-406c-7 0-12 6-12 13s5 12 12 12h406c7 0 13-5 13-12z m361 143c0-7-6-13-13-13h-131v-131c0-7-6-13-13-13s-12 6-12 13v131h-132c-7 0-12 6-12 13s5 12 12 12h132v132c0 7 5 12 12 12s13-5 13-12v-132h131c7 0 13-5 13-12z" horiz-adv-x="1000" />

<glyph glyph-name="uni-turn" unicode="&#xe847;" d="M882 306c0-210-171-382-382-382-211 0-382 172-382 382 0 7 6 13 13 13s12-6 12-13c0-196 160-357 357-357s357 161 357 357c0 197-160 357-357 357-73 0-144-22-204-64 0 0-1 0-1 0l150-41c7-2 11-9 9-16-2-5-7-9-12-9-1 0-2 0-3 1l-179 48c-3 1-6 4-8 7s-1 7 0 11l76 168c2 7 10 9 16 7 6-3 9-10 6-17l0 0-59-133c62 41 134 63 209 63 211 0 382-171 382-382z" horiz-adv-x="1000" />

<glyph glyph-name="uni-doc-empty" unicode="&#xe848;" d="M827 545c0 3-1 5-3 8l-200 200c-2 2-5 3-8 3 0 0-1 0-1 0h-430c-7 0-12-5-12-12v-788c0-7 5-12 12-12h630c7 0 13 5 13 12v588c0 0-1 0-1 1z m-42 11h-157v158l157-158z m-587-587v762h405v-187c0-7 5-13 12-13h188v-562h-605z" horiz-adv-x="1000" />

<glyph glyph-name="uni-img" unicode="&#xe849;" d="M849 721h-700c-7 0-12-6-12-13v-718c0-6 5-12 12-12h700c7 0 12 6 12 12v718c0 7-5 13-12 13z m-13-718h-674v693h674v-693z m-568 475c0 44 36 81 81 81 45 0 81-37 81-81s-36-81-81-81c-45 0-81 36-81 81z m525-428h-598v107l152 150 124-109 218 199 104-119v-228z" horiz-adv-x="1000" />

<glyph glyph-name="uni-arrow-line-down" unicode="&#xe84a;" d="M665 249l-156-156c-2-2-6-4-9-4s-6 2-9 4l-156 156c-5 5-5 13 0 18s13 5 18 0l135-135v465c0 7 5 12 12 12s13-5 13-12v-465l134 135c5 5 13 5 18 0s5-13 0-18z" horiz-adv-x="1000" />

<glyph glyph-name="uni-arrow-line-left" unicode="&#xe84b;" d="M760 350c0-7-6-13-13-13h-465l135-135c5-4 5-12 0-17-2-3-6-4-9-4s-6 1-9 4l-156 156c-2 2-3 5-3 9s1 6 3 9l156 156c5 4 13 4 18 0s5-13 0-18l-135-135h465c7 0 13-5 13-12z" horiz-adv-x="1000" />

<glyph glyph-name="uni-arrow-line-right" unicode="&#xe84c;" d="M756 359l-156 156c-5 4-13 4-18 0s-5-13 0-18l135-135h-465c-7 0-12-5-12-12s5-13 12-13h465l-135-135c-5-4-5-12 0-17 3-3 6-4 9-4s6 1 9 4l156 156c2 2 4 5 4 9s-2 6-4 9z" horiz-adv-x="1000" />

<glyph glyph-name="uni-arrow-line-up" unicode="&#xe84d;" d="M664 432c-5-5-13-5-18 0l-134 135v-465c0-7-6-13-13-13s-12 6-12 13v465l-135-135c-3-3-6-4-9-4s-6 1-9 4c-5 5-5 13 0 17l156 157c3 2 6 3 9 3s7-1 9-3l156-157c5-4 5-12 0-17z" horiz-adv-x="1000" />

<glyph glyph-name="uni-card1" unicode="&#xe84e;" d="M762 602h-525c-62 0-112-51-112-113v-280c0-62 50-112 112-112h525c62 0 113 50 113 112v280c0 62-51 113-113 113z m-525-25h525c48 0 88-39 88-88v-17h-700v17c-1 49 39 88 87 88z m525-455h-525c-48 0-87 39-87 87v238h700v-238c0-48-40-87-88-87z m13 112c0-7-6-12-13-12h-125c-7 0-12 5-12 12s5 13 12 13h125c7 0 13-6 13-13z" horiz-adv-x="1000" />

<glyph glyph-name="uni-card2" unicode="&#xe84f;" d="M762 602h-525c-62 0-113-51-113-113v-280c0-62 51-112 113-112h525c62 0 112 50 112 112v280c0 62-50 113-112 113z m-525-25h525c48 0 87-39 87-88v-17h-700v17c0 49 39 88 88 88z m525-455h-525c-49 0-88 39-88 87v238h700v-238c0-48-39-87-87-87z m-34 186c-20 0-36-10-47-24-11 14-27 24-46 24-33 0-59-26-59-59s26-59 59-59c19 0 35 10 46 25 11-15 27-25 47-25 32 0 58 27 58 59s-26 59-58 59z m-93-93c-19 0-34 16-34 34s15 34 34 34 34-15 34-34-15-34-34-34z m93 0c-19 0-34 16-34 34s15 34 34 34 33-15 33-34-15-34-33-34z" horiz-adv-x="1000" />

<glyph glyph-name="uni-cards" unicode="&#xe850;" d="M560 284c0 7 5 13 12 13h125c7 0 13-6 13-13s-6-12-13-12h-125c-7 0-12 5-12 12z m380 155v-280c0-62-50-112-112-112h-525c-58 0-105 44-112 100h-19c-62 0-112 50-112 112v280c0 62 50 113 112 113h525c58 0 105-44 111-100h20c62 0 112-51 112-113z m-112 88h-18v-105h105v17c0 49-39 88-87 88z m-743 12v-17h700v17c0 49-40 88-88 88h-525c-48 0-87-39-87-88z m87-367h525c48 0 88 39 88 87v238h-700v-238c0-48 39-87 87-87z m743-13v238h-105v-138c0-62-51-112-113-112h-481c6-42 43-75 87-75h525c48 0 87 39 87 87z" horiz-adv-x="1000" />

<glyph glyph-name="uni-download" unicode="&#xe851;" d="M870 23c0-7-6-13-13-13h-714c-7 0-13 6-13 13s6 12 13 12h714c7 0 13-5 13-12z m-379 150c3-2 6-3 9-3s7 1 9 3l156 156c5 5 5 13 0 18s-13 5-18 0l-134-135v465c0 7-6 12-13 12s-12-5-12-12v-465l-135 135c-5 5-13 5-18 0s-5-13 0-18l156-156z" horiz-adv-x="1000" />

<glyph glyph-name="uni-img-empty" unicode="&#xe852;" d="M140 62v646c0 7 5 13 12 13h631c7 0 12-6 12-13s-5-12-12-12h-618v-634c0-7-6-13-13-13s-12 6-12 13z m293 416c0 44-37 81-81 81s-81-37-81-81 36-81 81-81 81 36 81 81z m478 271l-47-47v-712c0-6-5-12-12-12h-700l-45-46c-2-3-6-4-9-4-3 0-6 1-9 3-5 5-5 13 0 18l109 111v0l201 204 0 0 443 451c1 1 2 2 2 3l49 49c5 5 13 5 18 0 4-5 5-13 0-18z m-72-72l-421-429 56-50 217 199 105-119v-228h-573l-46-47h662v674z m-641-520v-61l182 185-31 26-151-150z" horiz-adv-x="1000" />

<glyph glyph-name="uni-receipt-f" unicode="&#xe853;" d="M149 708v-718h700v718h-700z m593-385h-486v56h486v-56z m0 164h-486v56h486v-56z" horiz-adv-x="1000" />

<glyph glyph-name="uni-view-detail-f" unicode="&#xe854;" d="M500 657c-170 0-308-138-308-307 0-170 138-308 308-308 169 0 307 138 307 308 0 169-138 307-307 307z m-1-380c-7 0-13 6-13 13v36l-112-112c-2-3-6-4-9-4s-6 1-9 4c-5 5-5 13 0 18l113 112h-37c-7 0-12 6-12 12s5 13 12 13h67c7 0 12-6 12-13v-66c0-7-5-13-12-13z m148-54c0-7-6-13-13-13h-115c-7 0-12 6-12 13s5 12 12 12h103v229h-244v-89c0-7-6-13-13-13s-12 6-12 13v102c0 7 5 12 12 12h269c7 0 13-5 13-12v-254z" horiz-adv-x="1000" />

<glyph glyph-name="uni-downsize-f" unicode="&#xe855;" d="M500 657c-170 0-308-138-308-307 0-170 138-308 308-308 170 0 308 138 308 308 0 169-138 307-308 307z m-44-410c0-7-6-12-13-12s-12 5-12 12v21l-73-72c-3-3-6-4-9-4s-6 1-9 4c-5 4-5 12 0 17l73 73h-25c-7 0-12 6-12 13s5 12 12 12h55c3 0 6-1 9-4 0 0 0 0 0 0 2-2 4-5 4-8v-52z m0 154c0-7-6-13-13-13h-55c-7 0-12 6-12 13s5 12 12 12h25l-73 73c-5 5-5 13 0 18s13 5 18 0l73-73v25c0 6 5 12 12 12s13-6 13-12v-55z m204-205c-3-3-6-4-9-4s-6 1-9 4l-73 72v-21c0-7-5-12-12-12-7 0-13 5-13 12v52c0 3 2 6 4 8 0 0 0 0 0 0 1 2 3 2 5 2 1 1 2 2 4 2h54c7 0 13-6 13-12s-6-13-13-13h-24l73-73c5-5 5-13 0-17z m0 290l-73-73h24c7 0 13-5 13-12s-6-13-13-13h-54c-7 0-13 6-13 13v55c0 6 6 12 13 12 7 0 12-6 12-12v-25l73 73c5 5 13 5 18 0s5-13 0-18z" horiz-adv-x="1000" />

<glyph glyph-name="uni-upsize-f" unicode="&#xe856;" d="M499 657c-169 0-308-138-308-307 0-170 139-308 308-308s308 138 308 308c0 169-138 307-308 307z m-48-367l-73-73h25c7 0 12-6 12-13s-5-12-12-12h-55c-3 0-6 1-9 4 0 0 0 0 0 0-2 2-3 5-3 8v52c0 7 5 12 12 12s13-5 13-12v-21l72 72c5 5 13 5 18 0s5-12 0-17z m0 102c-2-2-6-4-9-4s-6 2-9 4l-72 73v-25c0-7-6-12-13-12s-12 5-12 12v55c0 7 5 12 12 12h55c7 0 12-5 12-12s-5-13-12-13h-25l73-72c5-5 5-13 0-18z m212-188c0-3-2-6-4-8s-6-4-9-4h-54c-7 0-13 6-13 12s6 13 13 13h24l-73 73c-5 5-5 12 0 17s13 5 18 0l73-72v21c0 7 5 12 12 12s13-5 13-12v-52z m0 236c0-7-6-12-13-12s-12 5-12 12v25l-73-73c-3-2-6-4-9-4s-6 2-9 4c-5 5-5 13 0 18l73 72h-24c-7 0-13 6-13 13s6 12 13 12h54c4 0 7-1 9-3 0 0 0 0 0 0 2-3 4-6 4-9v-55z" horiz-adv-x="1000" />

<glyph glyph-name="uni-downsize" unicode="&#xe857;" d="M431 277v-75c0-6-6-12-13-12s-12 6-12 12v44l-114-114c-3-2-6-3-9-3s-7 1-9 3c-5 5-5 13 0 18l114 114h-49c-7 0-12 6-12 13s5 12 12 12h79c3 0 6-1 9-4 0 0 0 0 0 0 2-2 4-5 4-8z m181-13h48c7 0 13 6 13 13s-6 12-13 12h-78c-3 0-7-1-9-4s-4-5-4-8v-75c0-6 6-12 13-12s12 6 12 12v44l114-114c3-2 6-3 9-3s7 1 9 3c5 5 5 13 0 18l-114 114z m-194 251c-7 0-12-6-12-13v-48l-114 114c-5 5-13 5-18 0s-5-13 0-18l114-114h-49c-7 0-12-5-12-12s5-13 12-13h79c7 0 13 6 13 13v78c0 7-6 13-13 13z m155-100c2-2 5-4 9-4h78c7 0 13 6 13 13s-6 12-13 12h-48l114 114c5 5 5 13 0 18s-13 5-18 0l-114-114v48c0 7-5 13-12 13s-13-6-13-13v-78c0-3 1-7 4-9 0 0 0 0 0 0z" horiz-adv-x="1000" />

<glyph glyph-name="uni-upsize" unicode="&#xe858;" d="M427 285c5-5 5-13 0-18l-113-113h48c7 0 12-5 12-12s-5-13-12-13h-78c-4 0-7 2-9 4 0 0 0 0 0 0-2 2-4 5-4 9v73c0 7 6 13 13 13s12-6 12-13v-43l113 113c5 5 13 5 18 0z m288-57c-7 0-13-6-13-13v-43l-113 113c-5 5-13 5-18 0s-4-13 0-18l113-113h-47c-7 0-13-5-13-12s6-13 13-13h78c3 0 6 2 8 4s4 6 4 9v73c0 7-6 13-12 13z m-401 316h48c7 0 12 6 12 12s-5 13-12 13h-78c-7 0-13-6-13-13v-78c0-6 6-12 13-12s12 6 12 12v48l113-113c3-2 6-3 9-3s6 1 9 3c5 5 5 13 0 18l-113 113z m409 21c0 0 0 0 0 0-2 3-5 4-8 4h-78c-7 0-13-6-13-13s6-12 13-12h47l-113-113c-4-5-4-13 0-18 3-2 6-3 9-3s7 1 9 3l113 113v-48c0-6 6-12 13-12s12 6 12 12v78c0 4-1 7-4 9z" horiz-adv-x="1000" />

<glyph glyph-name="uni-globe-f" unicode="&#xe859;" d="M349 495h302c-17 107-47 196-71 256-26 5-53 8-80 8-27 0-54-3-80-8-24-60-54-149-71-256z m-9-266h320c9 86 5 167-5 241h-310c-10-74-14-155-5-241z m337 266h202c-45 120-145 213-269 248 24-61 51-147 67-248z m207-266c13 39 20 81 20 125 0 41-6 79-17 116h-207c10-74 13-156 5-241h199z m-566-25h-193c45-113 139-200 256-236-33 80-53 159-63 236z m364 0c-10-77-30-156-63-236 117 36 211 123 256 236h-193z m-25 0h-314c11-79 32-162 68-244 29-7 59-10 89-10 30 0 60 3 89 10 36 83 57 165 68 244z m-334 291c16 101 43 187 67 248-124-35-224-128-269-248h202z m-210-25c-11-37-18-75-18-116 0-44 8-86 21-125h199c-8 85-5 167 5 241l-207 0 0 0z" horiz-adv-x="1000" />

<glyph glyph-name="uni-folder-f" unicode="&#xe85a;" d="M899 530v-489c0-7-5-13-12-13h-775c-7 0-13 6-13 13v617c0 7 6 13 13 13h235c3 0 6-1 8-3l158-125h374c7 0 12-6 12-13z" horiz-adv-x="1000" />

<glyph glyph-name="uni-folder-open-f" unicode="&#xe85b;" d="M52 40c-1 0-1 1-1 2v617c0 7 6 13 12 13h236c3 0 6-1 8-3l158-125h373c7 0 13-6 13-13v-142h-688c-5 0-10-4-12-9l-99-340z m121 324l-99-335h764c3 0 6 1 8 3 1 1 1 2 2 3 1 1 2 2 2 3l98 326h-775z" horiz-adv-x="1000" />

<glyph glyph-name="uni-content-empty" unicode="&#xe85c;" d="M517 442h-210c-7 0-13 5-13 12s6 13 13 13h210c7 0 13-6 13-13s-6-12-13-12z m-78-93c0 7-6 13-13 13h-119c-7 0-13-6-13-13s6-12 13-12h119c7 0 13 5 13 12z m-132-92c-7 0-13-6-13-13s6-12 13-12h27c7 0 13 5 13 12s-6 13-13 13h-27z m-155-208c7 0 13 6 13 13v634h618c7 0 12 5 12 12s-5 13-12 13h-631c-7 0-12-6-12-13v-646c0-7 5-13 12-13z m759 700l-47-47v-712c0-6-5-12-12-12h-700l-45-46c-2-3-6-4-9-4-3 0-6 1-9 3-5 5-5 13 0 18l753 766c1 1 2 2 2 3l49 49c5 5 13 5 18 0 4-5 5-13 0-18z m-72-72l-206-210h64c7 0 13-6 13-13s-6-12-13-12h-89l-78-80h167c7 0 13-6 13-13s-6-12-13-12h-192l-78-80h270c7 0 13-6 13-13s-6-12-13-12h-294c-1 0-1 0-1 0l-225-229h662v674z" horiz-adv-x="1000" />

<glyph glyph-name="uni-excel1" unicode="&#xe85d;" d="M849 721h-600c-7 0-12-6-12-13v-121h-88c-7 0-12-6-12-13v-449c0-7 5-13 12-13h88v-122c0-6 5-12 12-12h600c7 0 12 6 12 12v718c0 7-5 13-12 13z m-231-205h216c1 0 2 1 2 1v-156c0 0-1 1-2 1h-216v154z m0-179h216c1 0 2 1 2 1v-157c0 1-1 1-2 1h-216v155z m218 203c0 0-1 1-2 1h-216v33c0 7-6 13-13 13h-43v106c0 1-1 2-2 3h276v-156z m-574 156h276c-1-1-1-2-1-3v-106h-275v109z m-100-134h431v-425h-431v425z m100-450h276c-1-1-1-2-1-3v-106h-275v109z m300-109v106c0 1-1 2-2 3h45c7 0 13 6 13 13v32h216c1 0 2 1 2 1v-155h-274z m-82 448l-86-102 86-102c5-5 4-13-1-17-2-2-5-3-8-3-4 0-7 1-10 4l-84 99-84-99c-2-3-6-4-10-4-2 0-5 1-8 3-5 4-6 12-1 17l87 102-87 102c-5 6-4 14 1 18s14 4 18-1l84-99 84 99c5 5 13 6 18 1 5-4 6-12 1-18z" horiz-adv-x="1000" />

<glyph glyph-name="uni-excel2" unicode="&#xe85e;" d="M849 721h-600c-7 0-12-6-12-13v-121h-88c-7 0-12-6-12-13v-449c0-7 5-13 12-13h88v-122c0-6 5-12 12-12h600c7 0 12 6 12 12v718c0 7-5 13-12 13z m-231-205h216c1 0 2 1 2 1v-156c0 0-1 1-2 1h-216v154z m0-179h216c1 0 2 1 2 1v-157c0 1-1 1-2 1h-216v155z m-356 359h574v-156c0 0-1 1-2 1h-216v33c0 7-6 13-13 13h-343v109z m0-693v109h343c7 0 13 6 13 13v32h216c1 0 2 1 2 1v-155h-574z m218 244c5-5 4-13-1-17-2-2-5-3-8-3-4 0-7 1-10 4l-84 99-84-99c-2-3-6-4-10-4-2 0-5 1-8 3-5 4-6 12-1 17l87 102-87 102c-5 6-4 14 1 18s14 4 18-1l84-99 84 99c5 5 13 6 18 1 5-4 6-12 1-18l-86-102 86-102z" horiz-adv-x="1000" />

<glyph glyph-name="uni-excel3" unicode="&#xe85f;" d="M849 640h-136v74c0 9-6 15-13 14l-551-86c-7-1-12-7-12-14v-565c0-7 5-14 12-14l551-78c7-1 13 5 13 14v65h136c7 0 12 6 12 13v565c0 7-5 12-12 12z m-136-166h121c1 0 2 1 2 1v-118c0 0-1 1-2 1h-121v116z m0-141h121c1 0 2 1 2 1v-119c0 1-1 1-2 1h-121v117z m123 282v-117c0 0-1 1-2 1h-121v116h123z m-148-610l-526 67v547l526 75v-689z m25 70v116h121c1 0 2 1 2 2v-118h-123z m-411 130l101 142-101 141c-5 5-4 14 2 19 5 5 13 5 17 0l98-137 109 153c5 7 13 9 18 4 5-5 6-14 2-21l-113-159 113-156c4-7 3-16-2-21-2-2-5-3-8-3-4 0-7 2-10 6l-109 152-98-138c-2-3-6-5-9-5-3 0-6 2-8 4-6 5-7 14-2 19z" horiz-adv-x="1000" />

<glyph glyph-name="uni-lock" unicode="&#xe860;" d="M712 489h-39v50c0 0 0 1 0 1 0 0 0 1 0 1 0 96-78 174-173 174-96 0-174-78-174-174v-52h-39c-62 0-112-50-112-112v-280c0-62 50-113 112-113h425c62 0 113 51 113 113v280c0 62-51 112-113 112z m-361 52c0 82 67 149 149 149s148-67 148-149c0 0 1-1 1-1 0 0-1-1-1-1v-50h-297v52z m449-444c0-49-39-88-88-88h-425c-48 0-87 39-87 88v280c0 48 39 87 87 87h425c49 0 88-39 88-87v-280z m-250 187c0-23-16-42-38-48v-96c0-7-5-13-12-13s-13 6-13 13v96c-21 6-37 25-37 48 0 27 22 50 50 50s50-23 50-50z" horiz-adv-x="1000" />

<glyph glyph-name="uni-unlock" unicode="&#xe861;" d="M737 715c-96 0-174-78-174-174 0 0 1-1 1-1 0 0-1-1-1-1v-50h-361c-62 0-112-50-112-112v-280c0-62 50-113 112-113h425c62 0 113 51 113 113v280c0 62-51 112-113 112h-39v50c0 0 0 1 0 1 0 0 0 1 0 1 0 82 67 149 149 149s148-67 148-149v-60c0-7 6-13 13-13s12 6 12 13v60c0 96-78 174-173 174z m-22-338v-280c0-49-39-88-88-88h-425c-48 0-87 39-87 88v280c0 48 39 87 87 87h425c49 0 88-39 88-87z m-350-93c0 27 22 50 50 50 28 0 50-23 50-50 0-23-16-42-38-48v-96c0-7-5-13-12-13s-13 6-13 13v96c-21 6-37 25-37 48z" horiz-adv-x="1000" />

<glyph glyph-name="uni-user-business" unicode="&#xe862;" d="M624 357c47 38 75 95 75 156 0 110-89 200-200 200-110 0-200-90-200-200 0-61 28-118 76-156-102-48-169-152-169-266 0-58 47-106 106-106h375c59 0 106 48 106 106 0 114-67 218-169 266z m-300 156c0 97 79 175 175 175s175-78 175-175c0-60-31-116-82-148-97-34-179-2-185 0 0 0 0 0 0 0-52 32-83 88-83 148z m363-503h-375c-45 0-81 37-81 81 0 108 66 206 165 248 8-9 25-24 63-30-12-28-27-65-27-87 0-37 56-149 68-149s62 107 62 148c0 23-13 60-25 88 41 6 56 22 62 31 101-41 169-140 169-249 0-44-36-81-81-81z" horiz-adv-x="1000" />

<glyph glyph-name="uni-mail" unicode="&#xe863;" d="M851 645h-704c-7 0-12-6-12-13v-564c0-7 5-13 12-13h704c7 0 13 6 13 13v564c0 7-6 13-13 13z m-12-565h-679v540h679v-540z m-597 419c-5 4-6 12-1 17 4 6 12 6 17 2l241-202 233 202c6 4 13 4 18-1 4-6 4-14-1-18l-242-208c-2-2-5-4-8-4-3 0-5 1-8 3l-249 209z" horiz-adv-x="1000" />

<glyph glyph-name="uni-find-pw" unicode="&#xe864;" d="M333 440l-51-27 51-26-12-20-48 30 3-57h-24l3 57-49-30-11 20 50 26-50 27 11 20 49-31-3 57h24l-3-57 48 31 12-20z m150 20l-49-31 3 57h-23l2-57-49 31-11-20 50-27-50-26 11-20 49 30-2-57h23l-3 57 49-30 11 20-51 26 51 27-11 20z m452-465c-2-3-5-4-8-4s-7 1-9 4l-108 108c-30-26-68-42-111-42-52 0-98 24-129 61-3-2-5-3-9-3h-488c-7 0-13 5-13 12v565c0 6 6 12 13 12h704c7 0 13-6 13-12v-311c0-3-2-5-3-7 49-30 83-84 83-146 0-43-16-82-42-112l107-107c5-5 5-13 0-18z m-381 149c-16 25-25 55-25 88 0 45 17 85 46 116l2 49-49-30-11 20 50 26-50 27 11 20 49-31-2 57h23l-3-57 49 31 11-20-51-27 40-21c18 6 36 10 55 10 23 0 45-4 66-13v294h-680v-539h469z m66 238l-25 15 2-30c7 6 15 10 23 15z m79-296c81 0 146 65 146 146s-65 145-146 145-145-65-145-145 65-146 145-146z" horiz-adv-x="1000" />

<glyph glyph-name="uni-caution02" unicode="&#xe865;" d="M523 170c6-6 10-14 10-23 0-10-4-18-10-24s-14-9-23-9c-9 0-17 3-24 9-6 6-10 14-10 24 0 9 4 17 10 23 6 7 14 10 23 10s17-3 24-10z m-22 277c-10 0-19-4-25-10-7-7-10-17-10-29 0-9 1-23 2-44l7-105c2-14 4-24 7-31s8-10 16-10c8 0 14 4 17 11s6 16 7 29l9 109c1 10 2 19 2 29 0 16-2 29-7 38-4 8-12 13-25 13z m386-411c-16-29-50-45-95-45h-585c-45 0-79 16-95 45-17 28-14 65 9 104l293 507c22 39 52 60 86 60 33 0 63-21 85-60l293-507c23-39 26-76 9-104z m-30 91l-293 508c-18 30-41 47-65 47-23 0-46-17-64-47l-293-508c-17-30-20-58-9-79 12-20 38-32 74-32h585c36 0 62 12 74 32 11 21 8 49-9 79z" horiz-adv-x="1000" />

<glyph glyph-name="uni-caution02-f" unicode="&#xe866;" d="M878 140l-293 507c-22 39-53 60-86 60s-63-21-86-60l-293-507c-22-39-25-76-9-104 17-29 51-45 95-45h586c45 0 78 16 95 45 16 28 13 65-9 104z m-356-17c-6-6-14-9-23-9-9 0-16 3-23 9-7 6-10 14-10 24 0 9 3 17 9 23 7 7 15 10 24 10s17-3 24-10c6-6 9-14 9-23 0-10-3-18-10-24z m9 244l-10-109c-1-13-3-22-6-29-4-7-9-11-17-11-8 0-13 4-16 10s-6 17-7 31l-7 105c-1 21-2 35-2 44 0 12 3 22 9 29 7 6 15 10 26 10 12 0 21-4 25-13 4-9 6-21 6-38 0-10 0-19-1-29z" horiz-adv-x="1000" />

<glyph glyph-name="uni-clock" unicode="&#xe867;" d="M500 767c-230 0-417-187-417-417s187-417 417-417c230 0 417 187 417 417s-187 417-417 417z m0-809c-216 0-392 176-392 392s176 392 392 392c216 0 392-176 392-392s-176-392-392-392z m186 253c5-5 6-12 1-18-2-3-6-4-9-4-3 0-6 1-8 3l-178 148c-3 2-5 6-5 10v299c0 7 6 12 13 12s12-5 12-12v-293l174-145z" horiz-adv-x="1000" />

<glyph glyph-name="uni-timer1" unicode="&#xe868;" d="M799 601l49 49c5 5 5 13 0 18-5 5-13 5-18 0l-49-50c-72 66-165 106-269 109v53h47c7 0 13 6 13 13s-6 12-13 12h-118c-7 0-12-6-12-12s5-13 12-13h46v-53c-103-3-196-43-268-109l-49 50c-5 5-13 5-18 0s-5-13 0-18l49-49c-73-75-118-177-118-290 0-230 187-417 417-417 230 0 417 187 417 417 0 113-45 215-118 290z m-299-682c-216 0-392 176-392 392s176 392 392 392c216 0 392-176 392-392s-176-392-392-392z m288 392c0-159-129-288-288-288-79 0-152 32-204 84l204 204v288h0c159 0 288-129 288-288z" horiz-adv-x="1000" />

<glyph glyph-name="uni-timer2" unicode="&#xe869;" d="M257 399c-17 0-31-5-41-16-12-14-18-35-18-75 0-40 6-61 18-75 10-11 24-16 41-16 17 0 31 5 40 16 13 14 18 35 18 75 0 40-5 61-18 75-9 11-23 16-40 16z m23-150c-6-7-13-10-23-10-10 0-17 3-23 10-7 9-10 25-10 59 0 34 3 50 10 59 6 7 13 10 23 10 10 0 17-3 23-10 7-9 10-25 10-59 0-34-3-50-10-59z m116 150c-17 0-32-5-41-16-13-14-18-35-18-75 0-40 5-61 18-75 9-11 24-16 41-16 16 0 30 5 40 16 12 14 18 35 18 75 0 40-6 61-18 75-10 11-24 16-40 16z m22-150c-5-7-13-10-22-10-10 0-18 3-23 10-8 9-11 25-11 59 0 34 3 50 11 59 5 7 13 10 23 10 9 0 17-3 22-10 8-9 10-25 10-59 0-34-2-50-10-59z m68 21h27v-30h-27v30z m0 96h27v-30h-27v30z m117 33c-16 0-31-5-40-16-13-14-18-35-18-75 0-40 5-61 18-75 9-11 24-16 40-16s31 5 41 16c12 14 18 35 18 75 0 40-6 61-18 75-10 11-24 16-41 16z m23-150c-5-7-13-10-23-10s-17 3-23 10c-7 9-10 25-10 59 0 34 3 50 10 59 6 7 14 10 23 10s18-3 23-10c8-9 10-25 10-59 0-34-2-50-10-59z m168 26c0-37-22-58-56-58-32 0-53 19-55 50h25c2-19 14-29 30-29 19 0 30 13 30 38 0 24-11 36-30 36-11 0-19-5-24-14h-25l5 98h90v-22h-67l-2-54c4 8 15 14 29 14 28 0 50-20 50-59z m4 326l49 49c5 5 5 13 0 18-5 5-13 5-18 0l-49-50c-71 66-165 106-268 109v53h47c7 0 12 6 12 13s-5 12-12 12h-119c-7 0-12-6-12-12s5-13 12-13h47v-53c-103-3-197-43-268-109l-50 50c-5 5-13 5-17 0s-5-13 0-18l49-49c-73-75-119-177-119-290 0-230 187-417 417-417s417 187 417 417c0 113-45 215-118 290z m-299-682c-216 0-392 176-392 392s176 392 392 392 392-176 392-392-176-392-392-392z" horiz-adv-x="1000" />

<glyph glyph-name="uni-graph" unicode="&#xe86a;" d="M847 319h-162c-7 0-13-5-13-12v-315c0-7 6-12 13-12h162c7 0 13 5 13 12v315c0 7-6 12-13 12z m-12-314h-138v289h138v-289z m-254 714h-163c-7 0-12-5-12-12v-715c0-7 5-12 12-12h163c7 0 12 5 12 12v715c0 7-5 12-12 12z m-13-714h-137v689h137v-689z m-254 564h-162c-7 0-13-5-13-12v-565c0-7 6-12 13-12h162c7 0 13 5 13 12v565c0 7-6 12-13 12z m-12-564h-138v539h138v-539z" horiz-adv-x="1000" />

<glyph glyph-name="uni-graph-f" unicode="&#xe86b;" d="M847 307v-315h-162v315h162z m-429-315h163v715h-163v-715z m-266 0h162v565h-162v-565z" horiz-adv-x="1000" />

<glyph glyph-name="uni-main-econ" unicode="&#xe86c;" d="M281 487c-1 5 3 11 8 12 6 1 11-3 12-8 4-22 26-38 51-38s47 16 52 38c1 5 6 9 11 8 6-1 9-7 8-12-6-31-36-54-71-54s-65 23-71 54z m479-44c0 0 0 0 0 0v-232c0-28-22-50-50-50h-167l15-60h52c6 0 10-5 10-10s-4-10-10-10h-220c-5 0-10 4-10 10s5 10 10 10h52l15 60h-167c-28 0-50 22-50 50v233c-7 16-11 33-11 51 0 68 55 124 123 124 35 0 67-15 89-39 1 0 1 1 2 1h115c0 0 1-1 1-1 22 24 54 39 89 39 68 0 123-56 123-124 0-18-4-36-11-52z m-216 52c0-36 19-68 49-88 4-2 5-5 5-9 0-4-3-7-6-8-24-9-46-24-63-43-4-5-14-16-18-22 3-7 6-13 9-19 5-1 9-2 13-4 31 0 53 5 53 5 42 11 73 41 85 53 3 4 10 4 14 0 4-3 4-10 0-14-12-13-47-46-94-58-1-1-11-3-27-5 8-11 8-21 7-25 0-3-2-11-9-19 11 0 22 2 24 2 59 8 123 43 148 81 0 1 4 6 5 9 1 0 1 1 1 1v38c0 1-1 1-1 2-1 0-3 1-5 2-10 7-20 12-30 16-4 1-6 4-6 8-1 4 1 7 4 9 31 20 49 52 49 88 0 57-46 103-103 103s-104-46-104-103z m-295 0c0-36 18-68 49-88 3-2 5-5 4-9 0-4-2-7-6-8-13-5-25-12-36-20v-44c0 0 1-1 1-1 3-4 5-9 5-9 23-35 85-67 148-75 89-12 121 1 131 10 6 4 6 8 6 8 0 1 0 2 0 3 0 0 1 4-4 10-6 7-27 20-89 18-71-2-117 31-142 59-4 4-4 10 0 14 4 4 11 3 14-1 23-25 64-54 127-52 14 1 28 0 39-1-17 37-49 66-87 81-4 1-7 4-7 8s2 7 5 9c30 20 49 52 49 88 0 57-47 103-104 103s-103-46-103-103z m273-334h-44l-15-60h74l-15 60z m218 50v86c-33-37-93-68-152-76-4 0-18-2-33-2-8 0-17 0-25 2 0 0-1 1-1 1-14-4-32-6-52-6-19 0-41 2-65 5-61 8-121 36-152 71v-82c0-16 14-30 30-30h420c17 1 30 14 30 31z m-92 222c35 0 65 23 71 54 1 5-3 11-8 12-6 1-11-3-12-8-4-22-26-38-51-38s-47 16-51 38c-1 5-7 9-12 8-6-1-9-7-8-12 6-31 36-54 71-54z" horiz-adv-x="1000" />

<glyph glyph-name="uni-main-tax" unicode="&#xe86d;" d="M762 601h-384c-6 0-10-5-10-10v-115c-29-5-73-30-96-62-27-37-52-103-43-160 12-71 44-117 45-118 1-2 25-37 66-37 6 0 12 0 18 2 5 1 8 2 12 4 2-3 5-4 8-4h384c5 0 10 4 10 10v480c0 5-5 10-10 10z m-416-312c-6 8-13 21-13 39 1 26 10 42 35 61v-75c0 0 0-1 0-2-9-10-18-18-22-23z m8-169c-39-9-62 25-63 27-1 1-31 44-42 111-9 59 21 120 39 144 19 26 55 48 80 53v-42c-35-23-54-44-55-84 0-38 24-60 25-61 2-2 4-3 7-3 3 0 5 1 7 4 1 0 1 0 1 1 1 0 3 1 4 2 2 2 42 43 60 64 17 20 26 17 34 13 4-2 7-6 8-10 1-4-1-9-3-13-3-3-7-7-11-13-14-16-34-41-44-59-13-22-9-48-7-63 1-4 1-6 1-8 3-36-10-55-41-63z m398 1h-356c15 14 21 35 19 63 0 3 0 6-1 10-2 13-5 34 4 50 10 17 29 40 42 56 5 6 9 11 12 14 6 9 8 19 6 29-2 10-8 18-17 23-26 15-46-2-59-17-4-4-9-10-14-16v248h364v-460z m-279 359h-31v14h78v-14h-31v-89h-16v89z m41-89h16l11 30h37l11-30h17l-39 102 0 1h-15l-37-102-1-1z m43 76c1 1 1 3 2 4 0 1 0 2 1 3 0-1 0-2 0-3l2-4c0-2 1-3 2-5 0-1 0-2 1-3l8-25h-27l8 23c1 2 1 4 2 5l1 5z m73-76h-18l1 1 32 52-31 50h19l0-1 23-38 23 39h18l-1-2-30-48 33-53h-19l0 0-25 42-25-42z m68-98c0-2-1-3-3-3h-117c-2 0-3 1-3 3s1 2 3 2h117c2 0 3-1 3-2z m0-39c0-1-1-2-3-2h-117c-2 0-3 1-3 2s1 3 3 3h117c2 0 3-1 3-3z m0-38c0-1-1-2-3-2h-117c-2 0-3 1-3 2s1 3 3 3h117c2 0 3-1 3-3z m0-38c0-1-1-2-3-2h-117c-2 0-3 1-3 2s1 3 3 3h117c2 0 3-1 3-3z" horiz-adv-x="1000" />

<glyph glyph-name="uni-trash" unicode="&#xe86e;" d="M372 525l28-408c0-7-5-13-12-14 0 0-1 0-1 0-6 0-12 5-12 12l-28 409c0 7 5 13 12 13 7 0 13-5 13-12z m115 0v-409c0-7 6-13 13-13s12 6 12 13v409c0 6-6 12-12 12s-13-6-13-12z m124-422c1 0 1 0 1 0 7 0 12 5 13 12l27 409c0 7-5 13-12 13-6 1-12-5-13-12l-27-408c-1-7 4-13 11-14z m251 533c0-7-6-13-13-13h-38l-42-557c-4-59-54-104-112-104h-314c-59 0-108 45-113 104l-42 557h-38c-7 0-13 6-13 13s6 12 13 12h337v77c0 7 6 12 13 12s12-5 12-12v-77h337c7 0 13-5 13-12z m-76-13h-573l42-555c4-46 42-81 88-81h314c45 0 84 35 87 81l42 555z" horiz-adv-x="1000" />

<glyph glyph-name="uni-download-doc" unicode="&#xe86f;" d="M484-1h-308v762h405v-187c0-7 6-13 12-13h188v-283c0-7 6-13 12-13s13 6 13 13v296c0 0 0 0 0 1-1 3-2 5-4 8l-200 200c-2 2-5 3-8 3 0 0 0 0-1 0h-430c-6 0-12-5-12-12v-788c0-7 6-12 12-12h321c7 0 13 5 13 12s-6 13-13 13z m279 587h-157v158l157-158z m-203-206c0-7-5-12-12-12h-227c-7 0-13 5-13 12s6 13 13 13h227c7 0 12-6 12-13z m0-105c0-7-5-12-12-12h-227c-7 0-13 5-13 12s6 13 13 13h227c7 0 12-6 12-13z m285-202l-156-157c-3-2-6-3-9-3s-7 1-9 3l-156 157c-5 4-5 12 0 17s13 5 17 0l135-135v425c0 7 6 13 13 13s12-6 12-13v-425l135 135c5 5 13 5 18 0s4-13 0-17z" horiz-adv-x="1000" />

<glyph glyph-name="uni-no-doc1" unicode="&#xe870;" d="M651 51c4-3 6-8 6-13 0-6-2-10-6-14-4-3-8-5-13-5-5 0-10 2-13 5-4 4-6 8-6 14 0 5 2 10 5 13 4 4 8 6 14 6 5 0 9-2 13-6z m-12 158c-6 0-11-2-15-6-3-4-5-9-5-16 0-5 0-14 1-25l4-60c1-8 2-14 4-18 1-3 5-5 9-5 5 0 8 2 10 6 2 4 3 9 3 16l6 62c0 6 1 12 1 17 0 9-2 17-4 21-2 5-7 8-14 8z m224-237c-10-18-31-28-58-28h-334c-28 0-48 10-59 28-10 18-9 41 5 65l167 289c14 24 33 37 54 37s40-13 53-37l167-289c14-24 16-47 5-65z m-26 52l-167 289c-9 16-21 25-32 25-12 0-23-9-32-25l-167-289c-9-15-11-30-5-40 6-10 19-15 37-15h334c18 0 31 5 37 15 5 10 4 25-5 40z m-512-68c0-7-6-13-13-13h-170c-7 0-13 6-13 13v787c0 7 6 13 13 13h430c0 0 0-1 1-1 2 0 5-1 7-3l200-200c3-2 3-5 4-8 0 0 0 0 0-1v-196c0-7-6-12-12-12s-13 5-13 12v184h-187c-7 0-13 5-13 12v188h-405v-763h158c7 0 13-5 13-12z m259 757v-157h157l-157 157z" horiz-adv-x="1000" />

<glyph glyph-name="uni-no-doc2" unicode="&#xe871;" d="M313-32h-159v763h405v-188c0-7 6-12 13-12h187v-184c0-7 6-12 13-12s12 5 12 12v196c0 1 0 1 0 1 0 3-1 6-3 8l-200 200c-2 2-5 3-8 3-1 0-1 1-1 1h-430c-7 0-13-6-13-13v-787c0-7 6-13 13-13h171c7 0 12 6 12 13s-5 12-12 12z m271 745l145-145 13-12h-158v157z m275-682l-171 296c-13 22-31 35-50 35s-37-13-50-35l-171-296c-13-22-15-44-5-60 10-17 29-26 55-26h342c25 0 45 9 55 26 9 16 7 38-5 60z m-208-9c-3-4-8-6-13-6-5 0-10 2-14 5-4 4-5 9-5 15 0 5 1 9 5 13 4 4 8 6 14 6 5 0 10-2 14-6 3-4 5-8 5-13 0-6-2-11-6-14z m5 141l-5-63c-1-7-2-13-4-17s-5-6-10-6c-4 0-8 2-9 6s-3 10-4 18l-4 61c-1 12-1 20-1 26 0 7 1 12 5 16 4 4 9 6 15 6 7 0 12-2 14-7 3-6 4-13 4-22 0-6 0-12-1-18z" horiz-adv-x="1000" />

<glyph glyph-name="uni-service-link1" unicode="&#xe872;" d="M93 206c0 9 7 16 16 16h254l-43 44c-7 6-7 17 0 23s17 6 23 0l72-71c1-2 2-4 3-6 2-4 2-8 0-12-1-4-5-8-9-9-2-1-4-2-6-2h-294c-9 0-16 8-16 17z m56-111h254c9 0 17 7 17 16s-8 17-17 17h-294c-2 0-4-1-6-2-4-1-7-4-9-8-2-4-2-9 0-13 1-2 2-4 4-5l71-72c3-3 8-5 12-5s8 2 11 5c7 7 7 17 0 23l-43 44z m741 667h-634c-9 0-16-7-16-16v-390c0-9 7-16 16-16s17 7 17 16v373h600v-759h-617c-9 0-16-7-16-16s7-17 16-17h634c9 0 16 8 16 17v792c0 9-7 16-16 16z m-527-199h51v-147h26v147h51v23h-128v-23z m206 22l63-169h-27l-18 49h-61l-18-49h-27l1 3 62 167h25l0-1z m-19-51c-1-3-2-5-3-9l-13-37h45l-15 41c0 2-1 3-1 5-1 3-2 5-3 7l-2 8c-1 1-1 3-2 4 0-1-1-3-1-4-1-3-2-5-3-8l-2-7z m93-118h30l41 70 41-69 0-1h31l-55 88 51 80 2 2h-30l-38-64-38 63-1 1h-31l52-81-54-86-1-3z m-61-162c0-2 1-4 4-4h194c2 0 4 2 4 4s-2 4-4 4h-194c-3 0-4-2-4-4z m198-59h-194c-3 0-4-1-4-4s1-4 4-4h194c2 0 4 2 4 4s-2 4-4 4z m0-62h-194c-3 0-4-2-4-5s1-4 4-4h194c2 0 4 2 4 4s-2 5-4 5z m0-63h-194c-3 0-4-2-4-5s1-4 4-4h194c2 0 4 2 4 4s-2 5-4 5z" horiz-adv-x="1000" />

<glyph glyph-name="uni-service-link2" unicode="&#xe873;" d="M305 416v147h-51v23h128v-23h-51v-147h-26z m94 0h-27l1 3 62 167h25l0-1 63-169h-28l-17 49h-62l-17-49z m42 118c-1-3-2-5-3-9l-13-37h45l-13 37c-1 4-3 6-3 9-1 3-2 5-3 7l-2 8c-1 1-1 3-2 4 0-1-1-3-1-4-1-3-2-5-3-8l-2-7z m123-118l41 70 41-69 0-1h31l-55 88 51 80 1 2h-29l-38-64-38 63 0 1h-32l52-81-55-89h30z m300-405c-4-3-8-5-12-5s-8 2-12 5l-87 88c-26-21-58-34-94-34-83 0-150 68-150 151 0 83 67 150 150 150 83 0 151-67 151-150 0-36-13-68-34-94l88-88c6-6 6-16 0-23z m-205 87c65 0 118 53 118 118s-53 117-118 117-117-52-117-117 53-118 117-118z m122-128h-617v759h600v-311c0-9 8-16 17-16s16 7 16 16v328c0 9-7 16-16 16h-634c-9 0-16-7-16-16v-792c0-9 7-17 16-17h634c9 0 16 8 16 17s-7 16-16 16z" horiz-adv-x="1000" />

<glyph glyph-name="uni-service-link3" unicode="&#xe874;" d="M864 34l-88 88c21 26 34 58 34 94 0 83-68 150-151 150-83 0-150-67-150-150 0-83 67-151 150-151 36 0 68 13 94 34l87-88c4-3 8-5 12-5s8 2 12 5c6 7 6 17 0 23z m-322 182c0 65 53 117 117 117s118-52 118-117-53-118-118-118-117 53-117 118z m255-262c0-9-7-17-16-17h-634c-9 0-16 8-16 17v792c0 9 7 16 16 16h634c9 0 16-7 16-16v-328c0-9-7-16-16-16s-17 7-17 16v311h-600v-759h617c9 0 16-7 16-16z m-555 582c0-7 6-12 13-12h22l24-88h31l25 88h26l26-88h31l24 88h22c7 0 12 5 12 12s-5 13-12 13h-16l17 64h-29l-16-64h-38l-18 64h-31l-18-64h-38l-16 64h-30l17-64h-15c-7 0-13-6-13-13z m122 13l6 21 6-21h-12z m72-25l-11-47-14 47h25z m-106 0l-13-47-12 47h25z" horiz-adv-x="1000" />

<glyph glyph-name="uni-service-link4" unicode="&#xe875;" d="M864 34l-88 88c21 26 34 58 34 94 0 83-68 150-151 150-83 0-150-67-150-150 0-83 67-151 150-151 36 0 68 13 94 34l87-88c4-3 8-5 12-5s8 2 12 5c6 7 6 17 0 23z m-322 182c0 65 53 117 117 117s118-52 118-117-53-118-118-118-117 53-117 118z m255-262c0-9-7-17-16-17h-634c-9 0-16 8-16 17v792c0 9 7 16 16 16h634c9 0 16-7 16-16v-328c0-9-7-16-16-16s-17 7-17 16v311h-600v-759h617c9 0 16-7 16-16z m-329 653c0-3-2-4-4-4h-194c-2 0-4 1-4 4s1 4 4 4h194c2 0 4-2 4-4z m0-63c0-2-2-4-4-4h-194c-2 0-4 1-4 4s1 4 4 4h194c2 0 4-2 4-4z m0-63c0-2-2-4-4-4h-194c-2 0-4 2-4 4s1 4 4 4h194c2 0 4-2 4-4z m-4-67h-194c-2 0-4 2-4 4s1 4 4 4h194c2 0 4-2 4-4s-2-4-4-4z m-199-67h92v-93h-92v93z" horiz-adv-x="1000" />

<glyph glyph-name="uni-speech-bubble" unicode="&#xe876;" d="M587 462c0 120-107 217-240 217-132 0-239-97-239-217 0-55 23-106 61-144l-39-83 95 41c36-20 78-31 122-31 133 0 240 97 240 217z m-362-172c-2 0-4-1-6-1l-61-26 23 49c3 5 2 11-2 15-37 38-57 86-57 135 0 112 101 203 225 203 125 0 226-91 226-203 0-112-101-203-226-203-40 0-80 10-115 29-2 1-5 2-7 2z m667 14c0 147-130 267-291 272 18-35 28-73 28-114 0-143-126-259-282-259-12 0-24 1-36 2 44-101 153-173 280-173 56 0 109 14 154 38l118-50-48 103c47 48 77 111 77 181z m-57-257l-85 36c-2 1-4 1-5 1-3 0-5 0-7-1-45-24-95-37-147-37-110 0-208 55-256 143 4 0 8 0 12 0 164 0 296 123 296 273 0 34-6 67-20 98 145-14 255-123 255-256 0-63-26-124-73-171-4-5-5-11-3-16l33-70z m-590 444c-17 0-31-14-31-31s14-31 31-31 32 14 32 31-14 31-32 31z m0-48c-9 0-17 7-17 17s8 17 17 17 18-8 18-17-8-17-18-17z m134 17c0 17-14 31-32 31s-31-14-31-31 14-31 31-31 32 14 32 31z m-49 0c0 9 8 17 17 17s18-8 18-17-8-17-18-17-17 7-17 17z m120-31c17 0 31 14 31 31s-14 31-31 31-32-14-32-31 14-31 32-31z m0 48c9 0 17-8 17-17s-8-17-17-17-18 7-18 17 8 17 18 17z" horiz-adv-x="1000" />

<glyph glyph-name="uni-speech-bubble-f" unicode="&#xe877;" d="M815 123l48-103-118 50c-45-24-98-38-154-38-127 0-236 72-280 173 12-1 24-2 36-2 156 0 282 116 282 259 0 41-10 79-28 114 161-5 291-125 291-272 0-70-30-133-77-181z m-468 122c-44 0-86 11-122 31l-95-41 39 83c-38 38-61 89-61 144 0 120 107 217 239 217 133 0 240-97 240-217 0-120-107-217-240-217z m78 221c0-14 11-25 25-25s24 11 24 25-11 24-24 24-25-11-25-24z m-155 0c0 13-11 24-25 24s-24-11-24-24 11-25 24-25 25 11 25 25z m77-25c14 0 25 11 25 25s-11 24-25 24-24-11-24-24 11-25 24-25z" horiz-adv-x="1000" />

<glyph glyph-name="uni-coin1" unicode="&#xe878;" d="M857 553c0 0 0 1 0 1 0 61-81 109-185 109-104 0-185-48-185-109 0 0 0 0 0 0l0 0v-102c0 0 0 0 0 0 0 0 0-1 0-1v-47c-31 32-90 54-160 54-100 0-178-44-184-102 0-1-1-1-1-2v-218c0-2 1-4 2-6 12-53 88-93 183-93 80 0 146 28 173 69 26-41 92-69 172-69 104 0 185 47 185 108v407c0 0 0 0 0 1z m-185 85c87 0 160-39 160-84s-73-83-160-83-160 38-160 83 73 84 160 84z m0-192c70 0 129 22 160 54v-48c0 0 0 0 0 0 0-45-73-83-160-83-86 0-159 37-160 82v49c32-32 91-54 160-54z m0-102c70 0 129 21 160 54v-48c0-46-73-84-160-84s-160 38-160 84v48c32-33 91-54 160-54z m-345 89c87 0 160-38 160-83s-73-84-160-84c-87 0-160 38-160 84s73 83 160 83z m0-192c70 0 128 22 160 54v-48c0-45-73-83-160-83-87 0-160 38-160 83v48c31-32 90-54 160-54z m0-179c-87 0-160 38-160 83v48c31-32 90-54 160-54 70 0 128 22 160 54v-48c0-45-73-83-160-83z m505 83c0-45-73-83-160-83s-160 38-160 83v48c32-32 91-54 160-54 70 0 129 22 160 54v-48z m0 102c0-45-73-83-160-83s-160 38-160 83v48c32-32 91-54 160-54 70 0 129 22 160 54v-48z" horiz-adv-x="1000" />

<glyph glyph-name="uni-user-smile" unicode="&#xe879;" d="M500 411c-57 0-105 37-115 88-1 8 4 16 12 17 8 2 16-4 18-12 7-36 42-63 85-63 42 0 77 27 84 63 2 8 10 14 18 12 8-1 13-9 12-17-10-51-58-88-114-88z m292-316c0 112-65 215-165 263 46 38 73 93 73 153 0 111-90 200-200 200s-200-89-200-200c0-60 26-115 72-153-100-48-165-151-165-263 0-59 48-107 108-107h370c59 0 107 48 107 107z m-122 416c0-58-31-112-81-143-5-4-8-9-7-15 1-5 4-10 10-12 102-39 170-137 170-246 0-43-35-77-77-77h-370c-43 0-78 34-78 77 0 109 69 207 170 246 6 2 10 7 10 12s-2 11-7 15c-50 31-80 85-80 143 0 94 76 170 170 170 93 0 170-76 170-170z" horiz-adv-x="1000" />

<glyph glyph-name="uni-user-smile-plus" unicode="&#xe87a;" d="M816 674c0-8-7-15-15-15h-45v-45c0-8-7-15-15-15s-15 7-15 15v45h-45c-9 0-15 7-15 15s6 15 15 15h45v45c0 8 6 15 15 15s15-7 15-15v-45h45c8 0 15-7 15-15z m-226-213c2 8-4 16-12 18-8 1-16-4-17-12-7-37-43-63-85-63-42 0-78 26-85 63-1 8-9 13-17 12-9-2-14-10-12-18 9-50 57-87 114-87 57 0 105 37 114 87z m178-403c0-60-48-108-107-108h-370c-59 0-108 48-108 108 0 112 66 214 165 263-45 37-72 93-72 153 0 110 90 200 200 200 110 0 200-90 200-200 0-60-27-116-72-153 99-49 164-151 164-263z m-30 0c0 108-68 207-170 245-5 2-9 7-10 13 0 5 3 11 7 14 51 31 81 85 81 144 0 94-76 170-170 170s-170-76-170-170c0-59 30-113 80-144 5-3 8-9 7-14s-4-11-9-13c-102-38-171-137-171-245 0-43 35-78 78-78h370c43 0 77 35 77 78z" horiz-adv-x="1000" />

<glyph glyph-name="uni-user-smile-check" unicode="&#xe87b;" d="M478 387c-57 0-105 36-115 87-1 8 4 16 12 18 9 1 16-4 18-12 7-37 42-63 85-63 42 0 78 26 85 63 1 8 9 13 17 12 8-2 14-10 12-18-10-51-58-87-114-87z m292-316c0-60-48-108-107-108h-370c-60 0-108 48-108 108 0 111 65 214 165 262-46 38-72 94-72 154 0 110 89 200 200 200 110 0 200-90 200-200 0-60-27-116-73-154 100-48 165-151 165-262z m-30 0c0 108-68 207-170 245-6 2-9 7-10 13 0 5 2 11 7 14 51 31 81 85 81 144 0 94-77 170-170 170s-170-76-170-170c0-59 30-113 80-144 5-3 8-9 7-14 0-6-4-11-9-13-102-38-171-137-171-245 0-43 35-78 78-78h370c42 0 77 35 77 78z m70 660c-6 6-15 7-21 1l-63-59-30 27c-6 5-16 5-21-1-6-7-5-16 1-22l41-36c3-2 6-4 10-4 4 0 7 2 10 5l72 68c6 6 7 15 1 21z" horiz-adv-x="1000" />

<glyph glyph-name="uni-user-smile-talk" unicode="&#xe87c;" d="M464 371c-57 0-105 37-114 87-2 9 4 16 12 18 8 1 16-4 17-12 7-36 43-63 85-63s78 27 85 63c1 8 9 13 17 12 9-2 14-9 12-18-9-50-57-87-114-87z m293-316c0-59-49-108-108-108h-370c-59 0-107 49-107 108 0 112 65 214 164 263-45 38-72 93-72 153 0 110 90 200 200 200 110 0 200-90 200-200 0-60-27-115-72-153 99-49 165-151 165-263z m-30 0c0 109-69 207-171 246-5 1-9 6-9 12-1 6 2 11 7 14 50 32 80 85 80 144 0 94-76 170-170 170s-170-76-170-170c0-58 30-112 81-144 4-3 7-8 7-14s-5-10-10-12c-102-39-170-137-170-246 0-43 34-78 77-78h370c43 0 78 35 78 78z m101 618c0-44-39-79-86-79-9 0-19 1-28 4l-41-8c-1 0-2 0-3 0-4 0-7 1-10 4-4 4-5 9-4 14l7 35c-4 10-7 20-7 30 0 43 39 79 86 79s86-36 86-79z m-30 0c0 27-25 49-56 49s-56-22-56-49c0-7 2-14 6-21 2-3 2-7 2-10l-4-18 22 4c1 1 2 1 3 1 2 0 4-1 5-1 7-3 15-4 22-4 31 0 56 22 56 49z" horiz-adv-x="1000" />

<glyph glyph-name="uni-protect" unicode="&#xe87d;" d="M365 411c-57 0-105 37-115 88-1 8 4 16 12 17 9 2 16-4 18-12 7-36 42-63 85-63s78 27 85 63c1 8 9 14 17 12 8-1 14-9 12-17-10-51-58-88-114-88z m562-98v-168c0-41-34-75-75-75h-198c-11-47-54-82-104-82h-370c-60 0-108 48-108 107 0 112 65 215 165 263-46 38-72 93-72 153 0 111 89 200 200 200 110 0 200-89 200-200 0-60-27-115-73-153 12-6 24-12 35-20 10 29 37 50 70 50h16v24c0 62 50 112 111 112 49 0 92-32 107-78 2-8-2-16-10-19-8-2-16 2-19 10-11 34-42 57-78 57-45 0-81-37-81-82v-24h209c41 0 75-33 75-75z m-300-218c0 109-68 207-170 246-5 2-9 7-10 12s2 11 7 15c51 31 81 85 81 143 0 94-77 170-170 170-94 0-170-76-170-170 0-58 30-112 80-143 5-4 8-9 7-15s-4-10-9-12c-102-39-171-137-171-246 0-43 35-77 78-77h370c42 0 77 34 77 77z m270 218c0 25-20 45-45 45h-255c-23 0-42-17-45-40 64-53 103-132 105-218h195c25 0 45 21 45 45v168z m-173-25c-16 0-30-14-30-30 0-11 7-21 16-26 0 0-1 0-1-1v-60c0-8 7-15 15-15s15 7 15 15v60c0 1 0 1 0 1 9 5 15 15 15 26 0 16-13 30-30 30z" horiz-adv-x="1000" />

<glyph glyph-name="uni-doc-talk" unicode="&#xe87e;" d="M484 19c0-8-6-15-15-15h-264c-8 0-15 7-15 15v661c0 8 7 15 15 15h528c9 0 15-7 15-15v-330c0-9-6-15-15-15s-15 6-15 15v315h-498v-631h249c9 0 15-6 15-15z m127 546h-274c-8 0-15-7-15-15s7-15 15-15h274c8 0 15 7 15 15s-7 15-15 15z m0-88h-274c-8 0-15-7-15-15s7-15 15-15h274c8 0 15 7 15 15s-7 15-15 15z m-132-88h-142c-8 0-15-7-15-15s7-15 15-15h142c8 0 15 7 15 15s-7 15-15 15z m330-366c1-5-1-11-4-14-3-3-7-5-11-5-1 0-2 1-3 1l-82 16c-17-6-35-9-53-9-83 0-151 62-151 138 0 76 68 138 151 138s151-62 151-138c0-19-4-38-13-56l15-71z m-44 81c8 15 12 30 12 46 0 60-54 108-121 108s-121-48-121-108c0-59 55-108 121-108 16 0 32 3 47 9 1 0 3 1 5 1 1 0 2-1 3-1l64-12-12 54c-1 4 0 7 2 11z" horiz-adv-x="1000" />

<glyph glyph-name="uni-doc-user-smile" unicode="&#xe87f;" d="M301 550c0 8 6 15 15 15h87c9 0 15-7 15-15s-6-15-15-15h-87c-9 0-15 7-15 15z m15-103h87c9 0 15 7 15 15s-6 15-15 15h-87c-9 0-15-7-15-15s6-15 15-15z m0-88h87c9 0 15 7 15 15s-6 15-15 15h-87c-9 0-15-7-15-15s6-15 15-15z m398-57c32 29 50 69 50 112 0 38-14 72-37 99v167c0 8-7 15-15 15h-528c-9 0-15-7-15-15v-661c0-8 6-15 15-15h528c8 0 15 7 15 15s-7 15-15 15h-513v631h498v-125c-24 16-53 25-83 25-84 0-151-68-151-151 0-43 18-83 50-112-63-32-107-93-116-164-1-8 4-16 13-17 8-1 15 5 16 13 10 69 56 127 121 151 6 2 9 7 10 13 0 5-2 11-7 14-36 22-57 60-57 102 0 67 54 121 121 121s120-54 120-121c0-42-21-80-57-102-5-3-7-9-7-14 1-6 4-11 10-13 65-24 111-82 121-151 1-8 7-13 14-13 1 0 2 0 2 0 9 1 14 9 13 17-9 71-53 132-116 164z m-13 102c2 8-3 16-12 18-7 1-15-4-17-12-5-25-29-43-58-43s-54 18-59 43c-1 8-9 13-17 12-8-2-14-10-12-18 7-39 44-67 88-67 43 0 80 28 87 67z" horiz-adv-x="1000" />

<glyph glyph-name="uni-doc-noti" unicode="&#xe880;" d="M418 550c0-8-7-15-15-15h-88c-8 0-15 7-15 15s7 15 15 15h88c8 0 15-7 15-15z m-15-73h-88c-8 0-15-7-15-15s7-15 15-15h88c8 0 15 7 15 15s-7 15-15 15z m0-88h-88c-8 0-15-7-15-15s7-15 15-15h88c8 0 15 7 15 15s-7 15-15 15z m427-158c-1-7-8-12-15-12h-321c-7 0-13 5-14 12s1 14 7 17c0 0 15 10 16 52l3 132c0 1 5 133 149 133 15 0 29-2 42-4v104h-499v-631h514c8 0 15-6 15-15s-7-15-15-15h-529c-8 0-15 7-15 15v661c0 8 7 15 15 15h529c8 0 15-7 15-15v-129c73-34 77-118 77-119l3-132v0c1-42 16-53 16-53 6-3 9-10 7-16z m-44 18c-5 12-9 28-9 50l-3 132c-1 4-5 104-119 104s-119-100-119-104l-3-132c-1-22-4-38-9-50h262z m-97-49c-1-3-7-29-35-29-27 0-33 26-33 29-2 8-10 13-18 12-8-2-13-10-12-18 4-18 21-53 63-53 42 0 60 35 64 53 2 8-4 16-12 18-8 1-16-4-17-12z m-78 300c-2-1-54-21-47-96 1-8 7-13 15-13 1 0 1 0 1 0 9 1 15 8 14 16-5 50 26 64 28 65 8 3 11 11 9 19-3 8-12 12-20 9z" horiz-adv-x="1000" />

<glyph glyph-name="uni-doc-qna" unicode="&#xe881;" d="M414 550c0-8-6-15-15-15h-87c-9 0-15 7-15 15s6 15 15 15h87c9 0 15-7 15-15z m-15-73h-87c-9 0-15-7-15-15s6-15 15-15h87c9 0 15 7 15 15s-6 15-15 15z m0-88h-87c-9 0-15-7-15-15s6-15 15-15h87c9 0 15 7 15 15s-6 15-15 15z m418-140c2-6 1-12-4-16-2-3-6-5-10-5-2 0-4 1-6 2l-55 26c-25-13-53-20-81-20-95 0-172 78-172 174 0 97 77 175 172 175 11 0 21-1 32-3v83h-498v-631h513c8 0 15-6 15-15s-7-15-15-15h-528c-9 0-15 7-15 15v661c0 8 6 15 15 15h528c8 0 15-7 15-15v-107c64-25 110-89 110-163 0-39-13-78-38-109l22-52z m-43 25l-10 24c-2 5-1 12 3 16 23 27 36 61 36 96 0 80-64 145-142 145s-142-65-142-145 63-144 142-144c25 0 50 7 72 20 5 3 10 3 14 1l27-13z m-60 81l18-18-20-21-19 20c-18-10-44-11-62-3-8 4-15 9-21 16-6 6-10 14-13 24-3 9-4 19-4 30v21c0 11 1 21 4 30 3 9 7 17 13 24 6 7 13 12 21 16 17 7 40 7 56-1 8-3 16-8 21-15 6-7 10-15 13-24 3-9 5-19 5-30v-21c0-19-4-35-12-48z m-23 23c1 2 2 4 3 6 1 6 2 13 2 20v18c0 17-3 29-10 37-7 8-16 12-27 12-11 0-20-4-26-12-7-8-11-20-11-37v-18c0-16 4-28 11-36 6-8 15-12 26-12 4 0 8 1 12 2l-18 17 20 21 18-18z" horiz-adv-x="1000" />

<glyph glyph-name="uni-cancle" unicode="&#xe882;" d="M500 657c-170 0-308-138-308-307s138-308 308-308c169 0 307 138 307 308s-138 307-307 307z m0-590c-156 0-283 127-283 283 0 155 127 282 283 282 155 0 282-127 282-282 0-156-127-283-282-283z m123 389l-106-106 106-106c5-5 5-13 0-18-2-3-5-4-9-4s-6 1-8 4l-106 106-106-106c-3-3-6-4-9-4s-7 1-9 4c-5 5-5 13 0 18l106 106-106 106c-5 4-5 12 0 17s13 5 18 0l106-106 106 106c5 5 12 5 17 0s5-13 0-17z" horiz-adv-x="1000" />

<glyph glyph-name="uni-cancle-f" unicode="&#xe883;" d="M500 657c-170 0-308-138-308-307s138-308 308-308c169 0 307 138 307 308s-138 307-307 307z m123-413c5-5 5-13 0-18-2-3-5-4-9-4s-6 1-8 4l-106 106-106-106c-3-3-6-4-9-4s-7 1-9 4c-5 5-5 13 0 18l106 106-106 106c-5 4-5 12 0 17s13 5 18 0l106-106 106 106c5 5 12 5 17 0s5-13 0-17l-106-106 106-106z" horiz-adv-x="1000" />

<glyph glyph-name="uni-pen" unicode="&#xe884;" d="M570 499l74-74-201-201-79-3 5 77 201 201z m237-149c0-170-138-308-307-308-170 0-308 138-308 308s138 307 308 307c169 0 307-138 307-307z m-25 0c0 155-127 282-282 282-156 0-283-127-283-282 0-156 127-283 283-283 155 0 282 127 282 283z" horiz-adv-x="1000" />

<glyph glyph-name="uni-pen2" unicode="&#xe885;" d="M579 508c-5 5-13 5-18 0l-201-201c-2-3-3-5-4-8l-4-77c-1-4 1-7 3-10 2-2 6-3 9-3 0 0 0 0 0 0l80 2c3 0 6 2 8 4l201 201c3 2 4 6 4 9s-1 6-4 9l-74 74z m-141-272l-61-2 4 58 189 189 57-56-189-189z m62 421c-170 0-308-138-308-307s138-308 308-308c169 0 307 138 307 308s-138 307-307 307z m0-590c-156 0-283 127-283 283 0 155 127 282 283 282 155 0 282-127 282-282 0-156-127-283-282-283z" horiz-adv-x="1000" />

<glyph glyph-name="uni-pen-f" unicode="&#xe886;" d="M500 657c-170 0-308-138-308-307s138-308 308-308c169 0 307 138 307 308s-138 307-307 307z m-57-433l-79-3 5 77 201 201 74-74-201-201z" horiz-adv-x="1000" />

<glyph glyph-name="uni-calc-check" unicode="&#xe887;" d="M569 424l-137-119c-2-2-5-3-8-3-3 0-6 1-8 3l-71 63c-5 5-5 12-1 18 5 5 13 5 18 1l62-56 129 112c5 4 13 4 18-2 4-5 4-13-2-17z m-324-443c-7 0-12-6-12-12v-10c0-7 5-13 12-13s13 6 13 13v10c0 6-6 12-13 12z m103 0c-7 0-12-6-12-12v-10c0-7 5-13 12-13s13 6 13 13v10c0 6-6 12-13 12z m103 0c-7 0-12-6-12-12v-10c0-7 5-13 12-13s13 6 13 13v10c0 6-6 12-13 12z m418 222v-200c0-41-81-63-162-63-56 0-112 11-142 31 1-1 1-1 1-2v-10c0-7-5-13-12-13s-13 6-13 13v10c0 6 6 12 13 12 0 0 0 0 0 0-6 7-10 14-10 22v200c0 50 121 69 216 58v473h-605v-775c0-7-6-13-13-13s-12 6-12 13v787c0 7 5 13 12 13h630c7 0 13-6 13-13v-487c0-1-1-1-1-1 49-10 85-28 85-55z m-25-34c-30-19-84-28-137-28s-107 9-138 28v-66c0-13 49-37 138-37s137 24 137 37v66z m-275 34c0-13 49-37 138-37s137 24 137 37-48 38-137 38-138-25-138-38z m275-200v66c-30-19-84-28-137-28s-107 9-138 28v-66c0-13 49-38 138-38s137 25 137 38z" horiz-adv-x="1000" />

<glyph glyph-name="uni-doc-check" unicode="&#xe888;" d="M624 344c-112 0-204-91-204-203s92-203 204-203 203 91 203 203-91 203-203 203z m0-381c-99 0-179 80-179 178s80 178 179 178c98 0 178-80 178-178s-80-178-178-178z m94 234c4-5 4-13-2-17l-111-97c-3-2-6-3-8-3-3 0-6 1-9 4l-57 50c-5 5-6 13-1 18 4 5 12 6 17 1l50-44 103 90c5 4 13 4 18-2z m109 353c-1 3-1 6-4 8l-200 200c-2 2-5 3-8 3 0 0 0 0 0 0h-430c-7 0-13-5-13-12v-788c0-7 6-12 13-12h207c7 0 13 5 13 12s-6 13-13 13h-195v763h405v-188c0-7 6-12 13-12h187v-184c0-7 6-13 13-13s12 6 12 13v196c0 0 0 1 0 1z m-200 12v157l157-157h-157z" horiz-adv-x="1000" />

<glyph glyph-name="uni-doc-plus" unicode="&#xe889;" d="M827 550c-1 3-1 6-4 8l-200 200c-2 2-5 3-8 3 0 0 0 0 0 0h-430c-7 0-13-5-13-12v-788c0-7 6-12 13-12h207c7 0 13 5 13 12s-6 13-13 13h-195v763h405v-188c0-7 6-12 13-12h187v-184c0-7 6-13 13-13s12 6 12 13v196c0 0 0 1 0 1z m-200 12v157l157-157h-157z m-3-218c-112 0-204-91-204-203s92-203 204-203 203 91 203 203-91 203-203 203z m0-381c-99 0-179 80-179 178s80 178 179 178c98 0 178-80 178-178s-80-178-178-178z m102 173c0-6-5-12-12-12h-75v-75c0-7-6-12-13-12s-12 5-12 12v75h-75c-7 0-12 6-12 12s5 13 12 13h75v75c0 7 6 12 12 12s13-5 13-12v-75h75c7 0 12-6 12-13z" horiz-adv-x="1000" />

<glyph glyph-name="uni-card-user" unicode="&#xe88a;" d="M852 491h-326c1 7 3 15 3 23 0 110-90 200-200 200s-200-90-200-200c0-62 27-119 75-156-102-48-169-152-169-266 0-59 47-107 106-107h375c2 0 3 1 5 1 0 0 1-1 1-1h330c62 0 112 51 112 113v280c0 62-50 113-112 113z m0-25c48 0 87-40 87-88v-18h-483c33 28 56 64 66 106h330z m-792-374c0 111 70 212 174 251 5 2 8 6 8 11 1 4-2 9-6 11-51 33-82 88-82 149 0 96 78 175 175 175s175-79 175-175c0-61-31-116-83-149-4-2-7-7-6-11 0-5 3-9 8-11 104-39 174-140 174-251 0-45-36-81-81-81h-375c-45 0-81 36-81 81z m792-81h-268c23 19 38 48 38 81 0 98-50 190-130 243h447v-237c0-48-39-87-87-87z m12 112c0-7-5-13-12-13h-125c-7 0-13 6-13 13s6 12 13 12h125c7 0 12-5 12-12z" horiz-adv-x="1000" />

<glyph glyph-name="uni-card-company" unicode="&#xe88b;" d="M852 490h-229v137c0 48-39 87-87 87h-415c-48 0-87-39-87-87v-569c0-40 33-73 73-73h89c23 0 42 17 48 39 21-24 51-39 83-39h134 99 292c62 0 113 51 113 113v280c0 62-51 112-113 112z m0-25c49 0 88-39 88-87v-18h-317v105h229z m-606-399v11c0 20 16 36 36 36h93c20 0 36-16 36-36v-42c0-9 3-17 8-25h-92c-36 0-68 23-81 56z m215-56c-14 0-25 12-25 25v42c0 33-27 61-61 61h-93c-34 0-61-28-61-61v-42c0-13-11-25-25-25h-89c-26 0-48 22-48 48v569c0 34 28 62 62 62h415c34 0 62-28 62-62v-578c0-22-17-39-38-39h-99z m391 0h-243c8 11 14 24 14 39v286h317v-237c0-48-39-88-88-88z m13 113c0-7-6-13-13-13h-125c-7 0-12 6-12 13s5 12 12 12h125c7 0 13-5 13-12z m-611 480h-56c-25 0-45-20-45-45v-57c0-25 20-45 45-45h56c25 0 45 20 45 45v57c0 25-20 45-45 45z m20-102c0-11-9-20-20-20h-56c-11 0-20 9-20 20v57c0 11 9 20 20 20h56c11 0 20-9 20-20v-57z m185 102h-56c-25 0-45-20-45-45v-57c0-25 20-45 45-45h56c25 0 45 20 45 45v57c0 25-20 45-45 45z m20-102c0-11-9-20-20-20h-56c-11 0-20 9-20 20v57c0 11 9 20 20 20h56c11 0 20-9 20-20v-57z m-225-94h-56c-25 0-45-20-45-45v-56c0-25 20-45 45-45h56c25 0 45 20 45 45v56c0 25-20 45-45 45z m20-101c0-11-9-20-20-20h-56c-11 0-20 9-20 20v56c0 11 9 20 20 20h56c11 0 20-9 20-20v-56z m185 101h-56c-25 0-45-20-45-45v-56c0-25 20-45 45-45h56c25 0 45 20 45 45v56c0 25-20 45-45 45z m20-101c0-11-9-20-20-20h-56c-11 0-20 9-20 20v56c0 11 9 20 20 20h56c11 0 20-9 20-20v-56z" horiz-adv-x="1000" />

<glyph glyph-name="uni-temp-col1" unicode="&#xe88c;" d="M815 22h-630c-7 0-13 6-13 13v630c0 6 6 12 13 12h630c6 0 12-6 12-12v-630c0-7-6-13-12-13z m-618 25h605v605h-605v-605z" horiz-adv-x="1000" />

<glyph glyph-name="uni-temp-col2-h" unicode="&#xe88d;" d="M815 677h-630c-7 0-13-6-13-12v-630c0-7 6-13 13-13h630c6 0 12 6 12 13v630c0 6-6 12-12 12z m-618-25h290v-605h-290v605z m605-605h-290v605h290v-605z" horiz-adv-x="1000" />

<glyph glyph-name="uni-temp-col2-v" unicode="&#xe88e;" d="M815 677h-630c-7 0-13-6-13-12v-630c0-7 6-13 13-13h630c6 0 12 6 12 13v630c0 6-6 12-12 12z m-13-25v-290h-605v290h605z m-605-605v290h605v-290h-605z" horiz-adv-x="1000" />

<glyph glyph-name="uni-temp-col4" unicode="&#xe88f;" d="M815 677h-630c-7 0-13-6-13-12v-630c0-7 6-13 13-13h630c6 0 12 6 12 13v630c0 6-6 12-12 12z m-13-315h-290v290h290v-290z m-315 290v-290h-290v290h290z m-290-315h290v-290h-290v290z m315-290v290h290v-290h-290z" horiz-adv-x="1000" />

<glyph glyph-name="uni-arrow-first" unicode="&#xe890;" d="M711 59c-3-2-6-4-10-4-3 0-6 1-8 4l-304 281c-2 3-4 6-4 10s2 6 4 9l304 282 17-19-294-272 294-273c5-5 5-13 1-18z m-413 585c-7 0-13-6-13-13v-563c0-7 6-13 13-13s12 6 12 13v563c0 7-5 13-12 13z" horiz-adv-x="1000" />

<glyph glyph-name="uni-arrow-last" unicode="&#xe891;" d="M610 359c3-3 4-6 4-9s-1-7-4-10l-304-281-17 18 294 273-294 272c-5 5-5 13 0 18 4 5 12 5 17 1l304-282z m91 285c-6 0-12-6-12-13v-563c0-7 6-13 12-13s13 6 13 13v563c0 7-6 13-13 13z" horiz-adv-x="1000" />

<glyph glyph-name="uni-manage-user2" unicode="&#xe892;" d="M718 178c-37 0-68-30-68-67 0-37 31-67 68-67 37 0 67 30 67 67 0 37-30 67-67 67z m0-109c-24 0-43 19-43 42s19 42 43 42 42-19 42-42-19-42-42-42z m133 22c1 6 1 13 1 20 0 6 0 13-1 20l24 27c4 4 5 10 2 15l-26 45c-3 4-8 6-13 6l-37-8c-10 8-22 15-34 20l-12 35c-2 5-6 9-12 9h-51c-6 0-10-4-12-9l-12-35c-12-5-24-12-34-20l-37 8c-5 0-10-2-13-6l-26-45c-2-5-2-11 2-15l24-27c-1-7-1-14-1-20 0-7 0-14 1-20l-24-28c-4-4-4-10-2-15l26-44c3-5 8-7 13-6l37 7c10-8 22-15 34-20l12-35c2-5 6-8 12-8h51c6 0 10 3 12 8l12 35c12 5 24 12 34 20l37-7c5-1 10 1 13 6l26 44c3 5 2 11-2 15l-24 28z m-24 20c0-7 0-15-2-22-1-3 0-7 3-10l23-26-17-29-34 7c-3 1-7 0-10-3-11-9-24-16-37-21-4-1-7-4-8-8l-11-32h-33l-11 32c-1 4-4 7-8 8-13 5-26 12-37 21-3 3-7 4-10 3l-34-7-17 29 23 26c3 3 4 7 3 10-2 7-2 15-2 22 0 7 0 14 2 21 1 4 0 8-3 11l-23 25 17 29 34-7c4 0 7 1 10 3 11 10 24 17 37 22 4 1 7 4 8 7l11 33h33l11-33c1-3 4-6 8-7 13-5 26-12 37-22 3-2 6-3 11-3l33 7 17-29-23-25c-3-3-4-7-3-11 2-7 2-14 2-21z m-208 201c-29 30-64 53-102 68-5 2-8 6-8 10-1 5 1 10 5 12 53 33 85 90 85 152 0 98-80 178-179 178-98 0-179-80-179-178 0-62 32-119 85-152 4-2 6-7 6-12-1-4-4-8-8-10-107-40-178-143-178-257 0-46 37-83 83-83h235c7 0 13-6 13-13s-6-12-13-12h-235c-60 0-108 48-108 108 0 116 68 223 173 271-49 39-78 97-78 160 0 112 92 203 204 203s204-91 204-203c0-63-29-121-77-160 33-15 64-38 90-64 5-5 4-13-1-18-4-5-12-5-17 0z" horiz-adv-x="1000" />

<glyph glyph-name="uni-manage-site" unicode="&#xe893;" d="M755 178c-37 0-67-30-67-67 0-37 30-67 67-67s67 30 67 67c0 37-30 67-67 67z m0-109c-23 0-42 19-42 42s19 42 42 42 42-19 42-42-19-42-42-42z m133 22c1 7 2 13 2 20s-1 13-2 20l25 28c3 4 4 10 1 14l-25 45c-3 4-8 7-14 6l-36-8c-11 9-22 15-35 20l-11 35c-2 6-7 9-12 9h-52c-5 0-10-4-11-9l-12-35c-13-5-24-11-35-20l-36 8c-5 1-11-2-13-6l-26-45c-3-4-2-10 1-14l25-28c-1-7-2-14-2-20s1-13 2-20l-25-28c-3-4-4-10-1-14l26-45c2-5 8-7 13-6l36 8c11-9 22-16 35-21l12-35c1-5 6-8 11-8h52c5 0 10 3 12 8l11 35c13 5 24 12 35 21l36-8c6-1 11 1 14 6l25 45c3 4 3 10-1 14l-25 28z m-23 20c0-7-1-14-2-22-1-3 0-7 3-10l22-26-16-29-34 7c-4 1-8 0-11-3-11-9-23-16-37-21-3-1-6-4-7-8l-11-32h-34l-10 32c-2 4-4 7-8 8-14 5-26 12-37 21-3 3-7 4-11 3l-33-7-17 29 23 26c2 3 3 7 2 10-1 8-2 15-2 22s1 14 2 21c1 4 0 8-2 11l-23 25 17 29 33-7c4 0 8 1 11 3 11 10 23 17 37 22 4 1 6 4 8 8l10 32h34l11-32c1-4 4-7 7-8 14-5 26-12 37-22 3-2 7-3 11-3l34 7 16-29-22-25c-3-3-4-7-3-11 1-7 2-14 2-21z m-345 64c7 0 12 5 12 12s-5 13-12 13h-412v362h714v-212c0-7 6-13 12-13s13 6 13 13v395c0 7-6 12-13 12h-738c-7 0-13-5-13-12v-558c0-7 6-12 13-12h356v-148h-140c-7 0-13-5-13-12s6-13 13-13h206c7 0 13 6 13 13s-6 12-13 12h-41v148h43z m302 557v-145h-714v145h714z m-668-74c0 12 10 21 22 21s21-9 21-21c0-12-10-22-21-22s-22 10-22 22z m79 0c0 12 9 21 21 21 12 0 22-9 22-21 0-12-10-22-22-22-12 0-21 10-21 22z m78 0c0 12 10 21 22 21 12 0 21-9 21-21 0-12-9-22-21-22-12 0-22 10-22 22z" horiz-adv-x="1000" />

<glyph glyph-name="uni-manage-org-chart" unicode="&#xe894;" d="M486 394h-114l-40 32c-3 2-5 3-8 3h-87c-7 0-13-6-13-13v-177c0-7 6-13 13-13h249c7 0 12 6 12 13v143c0 7-5 12-12 12z m-13-143h-224v153h71l40-32c2-2 5-3 8-3h105v-118z m370 380h-339c-2 0-5 1-7 2l-126 99h-242v-601h357c7 0 12-6 12-13s-5-12-12-12h-369c-7 0-13 6-13 12v627c0 7 6 12 13 12h258c3 0 6-1 8-2l126-99h346c7 0 13-6 13-13v-306c0-6-6-12-13-12s-12 6-12 12v294z m-109-453c-37 0-67-30-67-67 0-37 30-67 67-67 37 0 67 30 67 67 0 37-30 67-67 67z m0-109c-23 0-42 19-42 42s19 42 42 42 42-19 42-42-19-42-42-42z m133 22c1 6 2 13 2 20 0 7-1 13-2 20l25 28c4 4 4 10 1 14l-25 45c-3 4-8 7-14 6l-36-8c-10 9-22 15-34 20l-12 35c-2 6-7 9-12 9h-52c-5 0-10-4-11-9l-12-35c-13-5-24-11-35-20l-36 8c-5 1-11-2-13-6l-26-45c-3-4-2-10 1-14l25-28c-1-7-2-13-2-20 0-7 1-14 2-20l-25-28c-3-4-4-10-1-14l26-45c2-5 8-7 13-6l36 8c11-9 22-16 35-21l12-35c1-5 6-8 11-8h52c5 0 10 3 12 8l12 35c12 5 24 12 34 21l36-8c6-1 11 1 14 6l25 45c3 4 3 10-1 14l-25 28z m-23 20c0-7-1-14-2-21-1-4 0-8 3-11l22-26-16-29-34 7c-4 1-8 0-11-3-10-9-23-16-36-21-4-1-7-4-8-8l-11-32h-33l-11 32c-1 4-4 7-8 8-14 5-26 12-37 21-3 3-7 4-11 3l-33-7-17 29 23 26c2 3 3 7 3 11-2 7-3 14-3 21 0 7 1 14 3 21 0 4-1 8-3 11l-23 25 17 29 33-7c4 0 8 1 11 3 11 10 23 17 37 22 4 1 7 4 8 8l11 32h33l11-32c1-4 4-7 8-8 13-5 26-12 36-22 3-2 7-3 11-3l34 7 16-29-22-25c-3-3-4-7-3-11 1-7 2-14 2-21z" horiz-adv-x="1000" />

<glyph glyph-name="uni-manage-org-chart2" unicode="&#xe895;" d="M329 104h-91l-31 25c-3 2-5 3-8 3h-70c-7 0-13-6-13-13v-143c0-7 6-12 13-12h200c7 0 13 5 13 12v116c0 7-6 12-13 12z m-12-115h-176v118h54l31-25c2-2 5-3 8-3h83v-90z m283 115h-91l-32 25c-2 2-5 3-8 3h-70c-7 0-12-6-12-13v-143c0-7 5-12 12-12h201c7 0 12 5 12 12v116c0 7-5 12-12 12z m-13-115h-175v118h53l32-25c2-2 5-3 8-3h82v-90z m284 115h-91l-32 25c-2 2-5 3-8 3h-70c-7 0-13-6-13-13v-143c0-7 6-12 13-12h201c6 0 12 5 12 12v116c0 7-6 12-12 12z m-13-115h-176v118h54l31-25c3-2 5-3 8-3h83v-90z m25 632v-376c0-7-6-13-12-13h-116c-7 0-12 6-12 13s5 12 12 12h103v351h-339c-3 0-6 1-8 3l-126 99h-243v-453h108c7 0 13-5 13-12s-6-13-13-13h-120c-7 0-13 6-13 13v478c0 7 6 12 13 12h259c3 0 5-1 8-2l126-100h348c6 0 12-5 12-12z m-383-185c-37 0-67-30-67-67s30-67 67-67c37 0 67 30 67 67s-30 67-67 67z m0-109c-24 0-42 18-42 42s18 42 42 42 42-19 42-42-19-42-42-42z m157-6l-24 28c1 6 1 13 1 20 0 6 0 13-1 20l24 27c4 4 5 10 2 15l-26 44c-3 5-8 7-13 6l-37-7c-10 8-22 15-34 20l-12 35c-2 5-6 9-12 9h-51c-5 0-10-4-12-9l-12-35c-12-5-24-12-34-20l-37 7c-5 1-10-1-13-6l-26-44c-2-5-2-11 2-15l24-27c-1-7-1-14-1-20s0-14 1-20l-24-28c-4-4-4-10-2-15l26-44c3-5 8-7 13-6l37 7c10-8 22-15 34-20l12-35c2-5 7-8 12-8h51c6 0 10 3 12 8l12 35c12 5 24 12 34 20l37-7c5-1 10 1 13 6l26 44c3 5 2 11-2 15z m-48 48c0-7 0-15-2-22-1-4 1-8 3-11l23-25-17-29-33 7c-4 1-8 0-11-3-11-9-24-17-37-21-4-1-7-4-8-8l-11-32h-33l-11 32c-1 4-4 7-8 8-13 4-26 12-37 21-3 3-6 4-10 3l-34-7-17 29 23 25c3 3 4 7 3 11-1 7-2 15-2 22s1 14 2 21c1 4 0 8-3 11l-23 25 17 29 34-7c4-1 7 0 10 3 11 10 24 17 37 21 4 2 7 5 8 8l11 33h33l11-33c1-3 4-6 8-8 13-4 26-11 37-21 3-3 7-4 11-3l33 7 17-29-23-25c-2-3-4-7-3-11 2-7 2-14 2-21z" horiz-adv-x="1000" />

<glyph glyph-name="uni-home" unicode="&#xe896;" d="M877 410l-369 312c-5 4-12 4-16 0l-370-312c-3-2-4-6-4-10v-413c0-7 5-13 12-13h739c7 0 13 6 13 13v413c0 4-2 8-5 10z m-20-411h-714v396l357 301 357-301v-396z m-487 281c0-71 58-130 130-130s130 59 130 130c0 72-59 130-130 130s-130-58-130-130z m235 0c0-58-48-105-105-105s-105 47-105 105 47 105 105 105 105-47 105-105z" horiz-adv-x="1000" />

</font>
</defs>
</svg>
